<svg xmlns="http://www.w3.org/2000/svg" xmlns:xlink="http://www.w3.org/1999/xlink" viewBox="0 0 165.47 242.79"><defs><style>.cls-1{fill:#52a6dc;}.cls-2,.cls-3{fill:none;}.cls-2{stroke:#f7c35b;stroke-width:0.65px;}.cls-3{stroke:#1d1d1b;stroke-width:0.25px;}.cls-4{fill:#1d1d1b;stroke:#f6b22e;stroke-width:0.75px;}.cls-5{opacity:0.4;fill:url(#radial-gradient);}.cls-6{fill:#ececec;}</style><radialGradient id="radial-gradient" cx="-151.96" cy="-1406.59" r="66.78" gradientTransform="translate(-411.35 1344.78) rotate(28.28)" gradientUnits="userSpaceOnUse"><stop offset="0" stop-color="#fff"/><stop offset="0.06" stop-color="#d5e6f4"/><stop offset="0.13" stop-color="#b3d2eb"/><stop offset="0.19" stop-color="#9ac4e4"/><stop offset="0.25" stop-color="#8bbbe0"/><stop offset="0.29" stop-color="#86b8df"/><stop offset="0.65" stop-color="#556cac"/><stop offset="0.77" stop-color="#8666a5"/><stop offset="0.99" stop-color="#e65a96"/></radialGradient></defs><title>Artboard 6</title><g id="artboard_1" data-name="artboard 1"><g id="astronaut"><path class="cls-1" d="M78.27,91.8C70.68,88,63.56,84.4,54.93,85.72,53,86,46.63,87,41.85,92c-1.51,1.58-1.59,2.22-6.54,14.82-3.16,8-4.1,10.25-2.93,12.81a8.08,8.08,0,0,0,6.52,4.59c2.12.17,5.12-.5,6.45-2.64,1.72-2.77-1.2-5-.54-10.36.39-3.16,1.78-5.32,4.1-8.95s3.59-5.61,5.7-5.92c1.62-.24,2.08.72,6.87,2.61,4.09,1.62,4.65,1.27,5.32,2.14,1.48,1.94-.31,4.9-4.1,13.63-4.05,9.34-4.15,10.93-7.13,15.94-1.73,2.9-1.82,2.57-4.16,6.39-4,6.49-4.75,9.07-6.9,12.83-4,7-6.29,6.54-13.94,15.88-4.47,5.45-7.06,8.62-9.48,13.6-5.76,11.91-6.42,25.31-6.42,25.31-.27,5.44.2,10-1.89,10.86-2.54,1-5.94-4.82-9.52-3.69A5.35,5.35,0,0,0,0,216.56C-.13,224,20.65,234,27.42,228.44c1.86-1.54,1.54-3.33,2.57-14.81,1.15-12.84,1.76-19.35,3.68-23.55,2.26-5,6-8.46,13.35-15.47,7.12-6.73,9.67-7.27,11.54-6.74a6.88,6.88,0,0,1,4.51,5.66c.32,2.88-1.68,4.46-5.68,9.89-3.53,4.8-6.33,8.6-8.06,13.65-1,3.05-.18,2.11-1.89,10.85-.66,3.44-1.51,7.22-3.14,15.21-1.14,5.56-1.39,6.91-.84,8.9,1.26,4.53,5.14,7,6.29,7.7,4.9,3.09,13,4.5,15.27,1,1.37-2.07.87-5.63-.9-7.68-2-2.28-4.42-1.49-5.86-3.15-2.08-2.41,1.31-6.22,3-13.52,1.78-7.91-.79-8.88,1.13-14.13,2.09-5.71,5.72-6.21,11.43-12.56,3.89-4.32,6-8.82,10.31-17.83,5-10.57,7.57-15.93,8.94-24,1.08-6.41,1-12,5-19.26,1-1.82,3.52-6.32,5.71-5.92,1.89.34,2,4.07,3.84,8.9.83,2.11,4.2,10.74,11.33,14.36a19.83,19.83,0,0,0,19.46-1.4c3.13-2.2,3.94-4.46,9.81-24.93,4.14-14.41,5-17.63,2.87-20-2.91-3.31-10.18-3.67-13.6-.13s-1.75,9.79-1.33,11.16c1,3.4,2.46,3.35,3.35,6.48,1.21,4.21.43,10.57-3.64,12.78-2.53,1.37-5.8.84-8.07-.38-4.4-2.39-3.79-6.73-7.7-12.42-2.81-4.09-6-6-12.32-9.86-6.58-4-8.39-3.55-17.18-8.17C83.05,95.19,84.15,94.76,78.27,91.8Z"/><path class="cls-2" d="M45.08,150.77c1.51-.83,3.11-1.38,4.64-2.06A21.85,21.85,0,0,0,54,146.17l8.17-5.93a45.6,45.6,0,0,1,4.2-2.86,44.77,44.77,0,0,1,4.52-2.32c.77-.34,1.55-.67,2.33-1a21.29,21.29,0,0,0,2.28-1,30.63,30.63,0,0,0,4.14-2.79c1.33-1,2.64-2.1,4.06-3s2.85-1.83,4.31-2.67a74.44,74.44,0,0,1,9-4.59c.79-.3,1.63-.55,2.4-.81s1.57-.58,2.33-.91c1.54-.67,3-1.42,4.58-2.12s3.12-1.3,4.65-2,2.83-1.67,4.52-2.3"/><path class="cls-3" d="M45.08,150.77c1.51-.83,3.11-1.38,4.64-2.06A21.85,21.85,0,0,0,54,146.17l8.17-5.93a45.6,45.6,0,0,1,4.2-2.86,44.77,44.77,0,0,1,4.52-2.32c.77-.34,1.55-.67,2.33-1a21.29,21.29,0,0,0,2.28-1,30.63,30.63,0,0,0,4.14-2.79c1.33-1,2.64-2.1,4.06-3s2.85-1.83,4.31-2.67a74.44,74.44,0,0,1,9-4.59c.79-.3,1.63-.55,2.4-.81s1.57-.58,2.33-.91c1.54-.67,3-1.42,4.58-2.12s3.12-1.3,4.65-2,2.83-1.67,4.52-2.3"/><path class="cls-4" d="M74.35,142.14c.37-1.16.81-2.31,1.3-3.47a19.37,19.37,0,0,0,1.8-3.89,43.76,43.76,0,0,0,1.43-7.67l1.58,2a42.7,42.7,0,0,1,1.83-5.54c.73-1.83,1.54-3.65,2.37-5.43a85.8,85.8,0,0,0-1.77,8.69c-.41,2.9-.34,5.66-.75,8.66l-1.51-2.07a21.5,21.5,0,0,1-3,4.73c-.34.39-.68.78-1.07,1.15a7,7,0,0,0-.88,1C75.21,140.9,74.77,141.52,74.35,142.14Z"/><circle class="cls-5" cx="122.15" cy="52.85" r="34.64"/><path class="cls-1" d="M143.6,6A50.56,50.56,0,0,0,95.69,95.08c24.55,13.21,48.69.49,61.92-24.1S168.15,19.23,143.6,6ZM107.24,83.3c-15-8.09-20.18-27.71-11.51-43.83s27.88-22.63,42.91-14.54,20.19,27.7,11.52,43.82S122.27,91.38,107.24,83.3Z"/><path class="cls-6" d="M125,103.87c-1.65,3.81-14.77,5.71-31.06-3.64-16.24-9.13-28-25.14-26.52-27.33,1.32-2.37,16.18,8.67,32.74,16.14C116.64,96.73,126.7,99.81,125,103.87Z"/><path class="cls-6" d="M124,110.3c-1.49,3.44-15,5.11-32.07-4.56-17-9.44-29.58-25.88-28.19-27.87,1.18-2.16,16.53,9.76,33.85,17.7C114.83,103.73,125.56,106.58,124,110.3Z"/></g></g></svg>