<svg id="Layer_1" data-name="Layer 1" xmlns="http://www.w3.org/2000/svg" xmlns:xlink="http://www.w3.org/1999/xlink" viewBox="0 0 256.51 429.63"><defs><style>.cls-1{fill:#dd6d22;}.cls-2{fill:#915385;}.cls-3{fill:#009ee2;}.cls-4{fill:#a7e4f9;}.cls-5{fill:#c9c34e;}.cls-6{fill:#3c3c3b;}.cls-7{fill:none;}.cls-7,.cls-8{stroke:#1d1d1b;stroke-miterlimit:10;}.cls-8{stroke-width:7px;fill:url(#Fading_Sky);}</style><linearGradient id="Fading_Sky" x1="-192.28" y1="-1732.23" x2="-137.74" y2="-1732.23" gradientTransform="translate(-1527.09 283.99) rotate(90)" gradientUnits="userSpaceOnUse"><stop offset="0" stop-color="#2580c3"/><stop offset="1" stop-color="#2580c3" stop-opacity="0"/></linearGradient></defs><title>Artboard 26</title><g id="romskip"><path class="cls-1" d="M44.49,379c-4.15,10.22-9,27,4.51,33,16.11,6.67,28.92-10,42.12-6.92,7.92,1.85,3.44,19.71,13.19,23.58,16.52,6,20.46-17.79,21.35-31.24,1.91-20.3.7-38.7,7.55-58.89,3.8-9.88,4.42-26.28-9.19-28.69-42.73-7.4-58.8,35.32-76.74,63.58C46.22,375.42,45.3,377.29,44.49,379Z"/><path class="cls-2" d="M63.56,362.75c-3,11.67-12.43,33.15-.19,33.35,8.6.63,10.72-20,21.42-18.79,17.83,2,2.7,29.84,13.45,37.56,10.1,7,16.78-15.81,18-26.19a46.43,46.43,0,0,1,4.08-13.07c8.19-16.44,18-34.7,14-51.34-1.6-5.53-6.54-6.58-11.09-4.42-5,3-9.82,6-14.72,8.95q-2.44,1.45-4.94,2.87c-13.27,6.69-28,10-36.69,24.59A56.41,56.41,0,0,0,63.56,362.75Z"/><path class="cls-3" d="M111,376.05c-5,6.94-13,21.75-16.47,15.51-2.69-4.16,6.94-14.8,3.4-19.78-5.92-8.31-15.53,12.39-22.32,10.39-6.24-2,3.2-16,8-21.43A43.28,43.28,0,0,0,89,352.6c5.88-11.84,12.22-25.36,21.58-31,3.18-1.72,5.06.35,5.25,3.71-.12,4-.28,7.87-.37,11.76,0,1.29,0,2.58-.06,3.88.35,10,2.77,19.16-2.05,30.36C112.6,373.07,111.82,374.63,111,376.05Z"/><path class="cls-4" d="M39.64,310.69c-4.19,4.33-15.57,27.12-19.33,26.85-1.93-2.59,9.73-22.17,6.08-23-2.72-1.87-6.19,2.12-11,11.25C10.71,334.29,4.7,348,1.24,351.92c-3,3.43,0-7.24,3.4-17.45,3.57-10.59,7.61-20.72,10-25.07,2-4.12,3.81-7.72,5.28-11.44,5.57-14.21,10.28-20.67,18.08-20.18a4.42,4.42,0,0,1,4.25,4.07c-.09,2.31-.17,4.51-.15,6.68,0,.72,0,1.44.06,2.15.5,5.9,3.68,9.51-.37,16.52C41.11,308.35,40.39,309.52,39.64,310.69Z"/><path class="cls-4" d="M201.94,385.82a33.08,33.08,0,0,0-3.74,5.25c-1.13,1.93-4.25,7.39-7.63,13.49-3.28,5.77-6.83,12.17-6.79,8.13,0-4.65,1.92-13.24,3.57-17.85.08-1.43,1-8,.26-8.22-5.59-.68-10,5.55-11.77,14.44-3.07,14.24-6.05,5.09-2.05-9,1.13-3.77,2.66-6.69,3.75-9.52a98.36,98.36,0,0,0,4.63-14.91q1-3.24,2-5.83c3.29-8.8,6.84-11.7,12.28-10.41a7,7,0,0,1,4.84,5.38c.2,2.58.41,5,.73,7.33.1.78.21,1.54.36,2.3.87,3.73,2.7,6.78,3.3,9.79a8.07,8.07,0,0,1,0,3.21,11.54,11.54,0,0,1-1.42,3.09C203.55,383.57,202.76,384.68,201.94,385.82Z"/><path class="cls-3" d="M138.23,232.79c-9.13-.26-21,1.16-34.2,4.78-13.18,3.33-27.78,8.86-41.16,9.92A54,54,0,0,1,60,230.91c23.39-14.36,48.26-30.53,62.69-33.92C127.64,208.17,133,220.45,138.23,232.79Z"/><path class="cls-3" d="M170.73,244.68c1.69,14.62,8.12,32.56,24.58,59.71,12.69-2.54,24.7-6.49,35.08-9.69-24.22-25.06-35.53-53.81-40.38-73.53C185,227.6,178.37,236.16,170.73,244.68Z"/><path class="cls-5" d="M233.57,176.21c-26.26,67.15-78.63,137.54-105.67,126s-16.42-106.86,18-170c16-29.35,7.19-15.84,52.29-70.56,7.42-9,58.3-61.73,58.3-61.73s-4.15,65.54-5.35,84C248.16,130,249,136.75,233.57,176.21Z"/><path class="cls-6" d="M153.23,337.58c-28-10.12-51.29-17.68-69.57-23.92a246.13,246.13,0,0,0,25.51-40c12.38,7.59,29.67,16.1,51.65,26.79A122.25,122.25,0,0,1,153.23,337.58Z"/><path class="cls-7" d="M153.23,337.58c-28-10.12-51.29-17.68-69.57-23.92a246.13,246.13,0,0,0,25.51-40c12.38,7.59,29.67,16.1,51.65,26.79A122.25,122.25,0,0,1,153.23,337.58Z"/><ellipse class="cls-8" cx="205.15" cy="118.98" rx="38.47" ry="27.27" transform="translate(15.35 261.16) rotate(-66.95)"/><path class="cls-6" d="M20.88,281c11.92-28,34.78-72.69,51.25-65.68,9,3.8-3.4,53-15.32,81"/><path class="cls-6" d="M177.75,350.44c11.92-28,34.78-72.69,51.24-65.68,8.95,3.81-3.39,52.95-15.31,81"/></g></svg>