<svg xmlns="http://www.w3.org/2000/svg" xmlns:xlink="http://www.w3.org/1999/xlink" viewBox="0 0 344 404"><defs><style>.cls-1{fill:#52a6dc;}.cls-2,.cls-3{fill:none;}.cls-2{stroke:#f7c35b;stroke-width:0.65px;}.cls-3{stroke:#1d1d1b;stroke-width:0.25px;}.cls-4{fill:#1d1d1b;stroke:#f6b22e;stroke-width:0.75px;}.cls-5{opacity:0.4;fill:url(#radial-gradient);}.cls-6{fill:#ececec;}</style><radialGradient id="radial-gradient" cx="-55.04" cy="-1321.92" r="66.78" gradientTransform="translate(-359.66 1308.97) rotate(28.28)" gradientUnits="userSpaceOnUse"><stop offset="0" stop-color="#fff"/><stop offset="0.06" stop-color="#d5e6f4"/><stop offset="0.13" stop-color="#b3d2eb"/><stop offset="0.19" stop-color="#9ac4e4"/><stop offset="0.25" stop-color="#8bbbe0"/><stop offset="0.29" stop-color="#86b8df"/><stop offset="0.65" stop-color="#556cac"/><stop offset="0.77" stop-color="#8666a5"/><stop offset="0.99" stop-color="#e65a96"/></radialGradient></defs><title>astronaut</title><g id="artboard_1" data-name="artboard 1"><g id="astronaut"><path class="cls-1" d="M175.19,176.48c-7.58-3.82-14.71-7.4-23.34-6.08-1.94.29-8.29,1.26-13.08,6.27-1.51,1.57-1.59,2.22-6.53,14.82-3.16,8-4.1,10.25-2.94,12.81a8.1,8.1,0,0,0,6.52,4.58c2.13.18,5.13-.49,6.46-2.64,1.72-2.77-1.2-5-.54-10.36.39-3.16,1.77-5.32,4.09-8.94s3.59-5.61,5.71-5.92c1.62-.25,2.07.71,6.86,2.61,4.09,1.62,4.65,1.27,5.32,2.14,1.48,1.94-.31,4.9-4.09,13.62-4,9.35-4.16,10.94-7.14,15.94-1.72,2.91-1.81,2.58-4.16,6.4-4,6.49-4.74,9.07-6.9,12.83-4,7-6.28,6.54-13.94,15.88-4.46,5.45-7.06,8.61-9.47,13.6-5.76,11.91-6.43,25.31-6.43,25.31-.27,5.44.2,10-1.88,10.86-2.55,1-5.95-4.82-9.53-3.69a5.34,5.34,0,0,0-3.25,4.72c-.13,7.45,20.65,17.46,27.41,11.87,1.86-1.53,1.54-3.32,2.57-14.8,1.15-12.84,1.77-19.35,3.68-23.55,2.26-5,6-8.47,13.36-15.47,7.11-6.73,9.67-7.27,11.54-6.74a6.87,6.87,0,0,1,4.5,5.66c.33,2.88-1.68,4.46-5.68,9.89-3.52,4.79-6.32,8.6-8.06,13.65-1,3-.18,2.11-1.88,10.85-.67,3.43-1.51,7.22-3.15,15.21-1.14,5.55-1.38,6.91-.83,8.9,1.25,4.53,5.14,7,6.29,7.7,4.9,3.08,13,4.5,15.27,1,1.36-2.06.86-5.62-.9-7.68-2-2.27-4.42-1.49-5.86-3.15-2.09-2.4,1.31-6.21,2.95-13.51,1.79-7.91-.79-8.88,1.14-14.14,2.08-5.7,5.71-6.21,11.42-12.55,3.89-4.32,6-8.82,10.31-17.83,5-10.57,7.58-15.93,8.94-24,1.09-6.41,1-12,5-19.26,1-1.82,3.52-6.32,5.7-5.93,1.9.34,2,4.08,3.85,8.9.82,2.12,4.19,10.75,11.33,14.37a19.8,19.8,0,0,0,19.45-1.4c3.13-2.2,3.94-4.46,9.82-24.93,4.13-14.41,5-17.63,2.86-20-2.9-3.31-10.18-3.67-13.6-.13S232.59,194,233,195.36c1,3.4,2.45,3.35,3.35,6.47,1.2,4.22.43,10.58-3.65,12.79-2.53,1.37-5.79.84-8.06-.38-4.41-2.39-3.79-6.74-7.71-12.42-2.81-4.09-6-6-12.31-9.86-6.59-4-8.4-3.56-17.19-8.17C180,179.87,181.08,179.44,175.19,176.48Z"/><path class="cls-2" d="M142,235.45c1.51-.83,3.12-1.39,4.64-2.06a21.56,21.56,0,0,0,4.28-2.54l8.18-5.94a46.74,46.74,0,0,1,4.19-2.85,43.79,43.79,0,0,1,4.52-2.32q1.17-.51,2.34-1a18.65,18.65,0,0,0,2.27-1,27.8,27.8,0,0,0,4.14-2.79c1.33-1,2.65-2.09,4.06-3s2.85-1.82,4.32-2.66a71.66,71.66,0,0,1,9-4.59c.79-.31,1.62-.55,2.4-.81s1.56-.58,2.33-.91c1.53-.67,3-1.43,4.58-2.12s3.12-1.3,4.65-2,2.83-1.67,4.52-2.3"/><path class="cls-3" d="M142,235.45c1.51-.83,3.12-1.39,4.64-2.06a21.56,21.56,0,0,0,4.28-2.54l8.18-5.94a46.74,46.74,0,0,1,4.19-2.85,43.79,43.79,0,0,1,4.52-2.32q1.17-.51,2.34-1a18.65,18.65,0,0,0,2.27-1,27.8,27.8,0,0,0,4.14-2.79c1.33-1,2.65-2.09,4.06-3s2.85-1.82,4.32-2.66a71.66,71.66,0,0,1,9-4.59c.79-.31,1.62-.55,2.4-.81s1.56-.58,2.33-.91c1.53-.67,3-1.43,4.58-2.12s3.12-1.3,4.65-2,2.83-1.67,4.52-2.3"/><path class="cls-4" d="M171.27,226.81c.38-1.15.82-2.31,1.3-3.47a18.42,18.42,0,0,0,1.81-3.89,43.45,43.45,0,0,0,1.42-7.66l1.59,2a44.2,44.2,0,0,1,1.82-5.54c.73-1.84,1.55-3.65,2.37-5.43a86.12,86.12,0,0,0-1.76,8.68c-.42,2.9-.35,5.67-.76,8.66l-1.5-2.07a22.07,22.07,0,0,1-3,4.74c-.34.38-.69.78-1.07,1.15a6.38,6.38,0,0,0-.88,1C172.14,225.57,171.69,226.19,171.27,226.81Z"/><circle class="cls-5" cx="219.08" cy="137.53" r="34.64"/><path class="cls-1" d="M240.53,90.7a50.56,50.56,0,0,0-47.91,89.06c24.55,13.2,48.68.48,61.91-24.11S265.08,103.91,240.53,90.7ZM204.17,168c-15-8.08-20.19-27.7-11.51-43.82s27.88-22.63,42.91-14.54,20.18,27.7,11.51,43.82S219.2,176.06,204.17,168Z"/><path class="cls-6" d="M221.87,188.55c-1.64,3.81-14.77,5.7-31.06-3.64-16.23-9.13-28-25.14-26.52-27.33,1.33-2.37,16.19,8.66,32.75,16.14C213.57,181.4,223.62,184.48,221.87,188.55Z"/><path class="cls-6" d="M220.89,195c-1.49,3.45-15,5.11-32.08-4.55-17-9.45-29.57-25.89-28.19-27.87,1.19-2.16,16.53,9.76,33.85,17.7C211.76,188.41,222.49,191.26,220.89,195Z"/></g></g></svg>