<svg id="Layer_1" data-name="Layer 1" xmlns="http://www.w3.org/2000/svg" xmlns:xlink="http://www.w3.org/1999/xlink" viewBox="0 0 460 654"><defs><style>.cls-1{fill:#52a6dc;}.cls-2,.cls-3{fill:none;}.cls-2{stroke:#f7c35b;stroke-width:0.65px;}.cls-3{stroke:#1d1d1b;stroke-width:0.25px;}.cls-4{fill:#1d1d1b;stroke:#f6b22e;stroke-width:0.75px;}.cls-5{opacity:0.4;fill:url(#radial-gradient);}.cls-6{fill:#ececec;}</style><radialGradient id="radial-gradient" cx="183.58" cy="1359.16" r="130.63" gradientTransform="translate(-219.08 -1173.44) rotate(-9.56)" gradientUnits="userSpaceOnUse"><stop offset="0" stop-color="#fff"/><stop offset="0.06" stop-color="#d5e6f4"/><stop offset="0.13" stop-color="#b3d2eb"/><stop offset="0.19" stop-color="#9ac4e4"/><stop offset="0.25" stop-color="#8bbbe0"/><stop offset="0.29" stop-color="#86b8df"/><stop offset="0.65" stop-color="#556cac"/><stop offset="0.77" stop-color="#8666a5"/><stop offset="0.99" stop-color="#e65a96"/></radialGradient></defs><title>astronaut Spilskærm</title><g id="astronaut"><path class="cls-1" d="M190.68,277.06c-16.3,3.21-31.6,6.22-43.35,18.61-2.64,2.79-11.3,11.92-12.69,25.39-.43,4.25.22,5.34,7.7,30.74,4.77,16.21,6,20.75,10.84,23.3a15.82,15.82,0,0,0,15.58-.74c3.48-2.27,7.32-6.91,6.8-11.82-.67-6.35-7.87-6.31-13.27-15.36-3.19-5.35-3.65-10.34-4.41-18.73s-1.19-13,1.7-16c2.22-2.32,4.07-1.38,13.74-4.2,8.27-2.41,8.71-3.62,10.79-3.08,4.61,1.21,5.4,7.94,10,25.95,5,19.31,6.69,21.88,8.11,33.19.81,6.56.29,6.16,1.24,14.87,1.63,14.82,3.56,19.71,4.74,28.1,2.19,15.66-1.86,17.65-2.47,41.25-.36,13.78-.57,21.79,1.68,32.38,5.4,25.32,20.46,46.82,20.46,46.82,6.1,8.71,12.35,15.26,10.11,19-2.73,4.61-15-.29-19.13,5.74-2.14,3.09-1.59,8.24.63,11.2,8.73,11.66,52.85,2.19,56.6-14.56,1-4.61-1.62-7-13.8-25.95-13.63-21.22-20.49-32-22.58-40.79-2.46-10.38-.95-20.23,2.07-39.93,2.9-18.93,6.21-22.83,9.73-24.26,4.45-1.8,10.39-.12,13.76,3.34,3.95,4.05,2.74,8.9,3.09,22.09.31,11.64.55,20.88,3.93,30.75,2,6,2.25,3.49,10.11,19,3.09,6.11,6.33,13,13.39,27.27,4.91,9.95,6.16,12.33,9.4,14.75,7.37,5.5,16.3,4.61,19,4.35,11.27-1.12,25.44-8.62,24.82-16.75-.37-4.82-5.42-9.73-10.61-10.78-5.76-1.16-8.61,3-12.83,2.17-6.11-1.22-5.43-11.17-11.65-24.43-6.74-14.35-11.88-12.76-15.22-23.19-3.62-11.31,1.38-16.46,2.59-33.1.82-11.34-1.27-20.87-5.47-39.92-4.93-22.37-7.42-33.7-15-47.74-6-11.2-12.9-19.76-15.45-35.72-.63-4-2.14-14,1.71-16,3.34-1.75,7.92,4,16.61,9.14,3.82,2.27,19.38,11.56,34.75,8.59,12.51-2.41,24.5-12.87,28.37-25.51,2.19-7.16.73-11.62-14.76-50.28-10.9-27.23-13.46-33.22-19.61-34.39-8.46-1.62-20.13,6.55-21.16,16.13s9.05,17.21,11.34,18.82c5.7,4,7.82,2.23,12.95,6,6.92,5.07,13.36,15.83,9.71,24.12-2.26,5.16-7.94,8.26-12.91,9.09-9.67,1.6-13.94-5.84-26.81-9.93-9.25-2.94-16.52-2.11-30.86-.46-15,1.73-17.23,4.59-36.34,8C202.15,276.56,203.33,274.57,190.68,277.06Z"/><path class="cls-2" d="M210.45,408.09c1.4-3.25,3.36-6.19,5-9.27a48.69,48.69,0,0,0,3.65-9.76l5.84-20.17a79.14,79.14,0,0,1,7.41-17.6c1.52-2.82,3.32-5.44,4.42-8.4a70.57,70.57,0,0,0,2.78-9.08c.77-3.08,1.55-6.18,2.58-9.2s2.17-6,3.39-8.94c2.5-5.85,4.85-11.79,8.15-17.29.84-1.43,1.81-2.81,2.73-4.16s1.75-2.79,2.54-4.24c1.59-2.89,3-5.88,4.57-8.82.76-1.47,1.62-2.91,2.43-4.35l2.42-4.32c.39-.73.82-1.44,1.18-2.17s.65-1.5.95-2.27a25.33,25.33,0,0,1,2.1-4.56"/><path class="cls-3" d="M210.45,408.09c1.4-3.25,3.36-6.19,5-9.27a48.69,48.69,0,0,0,3.65-9.76l5.84-20.17a79.14,79.14,0,0,1,7.41-17.6c1.52-2.82,3.32-5.44,4.42-8.4a70.57,70.57,0,0,0,2.78-9.08c.77-3.08,1.55-6.18,2.58-9.2s2.17-6,3.39-8.94c2.5-5.85,4.85-11.79,8.15-17.29.84-1.43,1.81-2.81,2.73-4.16s1.75-2.79,2.54-4.24c1.59-2.89,3-5.88,4.57-8.82.76-1.47,1.62-2.91,2.43-4.35l2.42-4.32c.39-.73.82-1.44,1.18-2.17s.65-1.5.95-2.27a25.33,25.33,0,0,1,2.1-4.56"/><path class="cls-4" d="M234.56,364.81a85.28,85.28,0,0,1,2.12-16.2,36,36,0,0,0,.88-8.7c0-2.84-.29-5.61-.49-8.48l2.48.5c0-2.26,0-4.57.16-6.9s.38-4.64.67-6.95.61-4.6,1-6.88.69-4.51,1.1-6.84c-.2,3.11-.31,6.07-.42,9.14s-.16,6.09-.09,9.12a87.65,87.65,0,0,0,.65,8.94c.35,2.95.76,5.92.9,9.15l-2.42-.85a44.11,44.11,0,0,1-1.31,6.85l-.54,1.74-.62,1.69c-.35,1-.69,2-1,3A79.94,79.94,0,0,0,234.56,364.81Z"/><circle class="cls-5" cx="211.73" cy="164.23" r="67.76"/><path class="cls-1" d="M188.66,66.16a98.9,98.9,0,0,0,32.87,195c53.77-9.06,75.79-57.67,66.71-111.53S242.43,57.1,188.66,66.16Zm36.57,163c-32.92,5.55-64.43-18.58-70.38-53.88s15.92-68.42,48.84-74,64.43,18.57,70.38,53.87S258.15,223.6,225.23,229.15Z"/><path class="cls-6" d="M279.84,239c.35,6-27.19,30.09-62.19,36.14-35.05,6.56-62.05-7.6-63.9-14.91-2.12-7.83,22.73-4.1,59.63-9.26C250.29,246.17,279.88,232.54,279.84,239Z"/><path class="cls-6" d="M286.3,250.05c.28,5.46-28.79,29.92-65.48,36.15-36.75,6.76-64.77-7.32-66.5-13.92-2-7.16,24.05-2.51,62.62-8C255.5,259.2,286.43,244.17,286.3,250.05Z"/></g></svg>