<svg xmlns="http://www.w3.org/2000/svg" viewBox="0 0 350 408"><defs><style>.cls-1{fill:#ff7bac;}.cls-2{opacity:0.43;}.cls-3{fill:#fff;}</style></defs><title>det rosa hull</title><g id="Layer_6" data-name="Layer 6"><g id="Det_rosa_hull" data-name="Det rosa hull"><path class="cls-1" d="M199.91,300.33c-.94.09-1.88.16-2.82.24.13,0,3.36-.13,1.27-.11-5.16.07,2.69.33-1,0s.76.28,1.17,0c-.25.15-2.81-.24-2.75-.13,0-.06,3.52.32,1.36.06-1.13-.13-2.27-.2-3.4-.33,2.95.34-1-.2-2-.36-.46-.07-4.17-.76-2.84-.49-3.28-.67-6.53-1.52-9.73-2.48A120.16,120.16,0,0,1,145,280.11,125.1,125.1,0,0,1,98.24,218c-8.74-25.56-9.26-53.58,1.51-78.61a100.26,100.26,0,0,1,54.2-53,80.5,80.5,0,0,1,17.14-4.82l2.07-.31c-2.85.42-.44.06.13,0,4.48-.46-5.29,0-2.41,0,2.27,0-6.91-.41-2.55-.08.67.05,2.89.52,0,0,.88.17,1.78.27,2.66.43-1-.18,2.15.5,2.77.66,1.5.39,3,.81,4.48,1.29a66.61,66.61,0,0,1,9,3.7,81.27,81.27,0,0,1,15.93,10.3c20.47,16.91,32.42,45.3,27.59,71.76a63.7,63.7,0,0,1-18,34.07,64.5,64.5,0,0,1-15.48,11.11,52.9,52.9,0,0,1-7.91,3.36c-1.73.55-3.5,1-5.28,1.43,1-.21-4.33.12-1.07.21,3.71.09,7.5.11,11.21.11.75,0-.5-.09-1.45-.33a41.93,41.93,0,0,1-9.06-3.46,50.93,50.93,0,0,1-15-11.63c-8.64-9.89-13.5-23.83-12.14-37a40.35,40.35,0,0,1,20.56-31.23c2.8-1.54,5.73-2.05,8.58-3.31a4.07,4.07,0,0,1-1.08.16c-.84-1-15.3.53-16.65-.19-.74-.39,2.34.73,3.13,1.06a31,31,0,0,1,14.32,12.36c7.06,11.65,6.51,28-4.86,36.76-2.39,1.85-5,2.61-7.56,3.95.71-.37,22.32,0,22.12-.15-1.25-.92-2.89-1.42-4.18-2.37a19.86,19.86,0,0,1-7.91-17.77,16.46,16.46,0,0,1,3.46-8.55,15.13,15.13,0,0,1,3.5-3.08c.69-.45,3.28-1.38,2.45-1.27.16,0,5.86-.7,5.86-2.18s-5.7-2.16-5.86-2.19a101.1,101.1,0,0,0-28.28,0c-8.77,1.2-17.58,4.87-20.46,14-2.4,7.63,1,15.79,6.66,21,8.76,8.12,23.33,8,34.4,8,11.5,0,25.47-.55,34.89-8.18,13.28-10.77,13.22-29.58,2.69-42.25a37.31,37.31,0,0,0-19.68-12.22c-14.41-3.77-31.07-3.62-45.68-1.19-16.36,2.72-31,11.46-37.5,27.27-6.19,14.95-2.64,32.49,6.71,45.33,10,13.74,25.09,21.07,41.71,23.22,22.52,2.91,48.57,2.35,69.07-8.71,29.18-15.76,40.84-50,31-80.93C258,103,230.07,82.26,198,77.07c-37.82-6.11-81.44-.72-111.13,25.31-23.86,20.92-37.2,52.07-35,83.82,2.14,31.53,16.69,61.33,39.46,83.1,25.45,24.31,58.68,35,93.27,37a240.24,240.24,0,0,0,35.59-.63c1.59-.14,15-2,7.18-4.23-8.37-2.44-18.8-1.88-27.36-1.11Z"/><g class="cls-2"><path class="cls-3" d="M207,291c-53.56,4.81-105.86-26.21-125.33-76.84C72,189,70.37,160.81,80.81,135.57a96.84,96.84,0,0,1,54.06-52.92c25.37-9.71,53.58-8.51,76.33,7.12,21.49,14.77,35.19,41.69,32.24,67.92-3,26.69-24.65,48.57-51.17,52.27-27.06,3.79-53.48-17-53.82-44.91a36.76,36.76,0,0,1,18.43-32.18c11.7-6.68,26.77-6.49,36.79,3.16,9.65,9.3,12.18,25.7,1.75,35.44-10,9.38-29.25,6.6-30.36-9.17-.51-7.21,4.93-12.08,11.67-13,6.35-.86,3.64-10.5-2.66-9.64-17.51,2.38-24,22.77-14.25,36.43s28.84,14,41.18,3.75c12.83-10.69,14.25-29.35,5.83-43.22s-24.25-20.42-39.94-17.78a46.61,46.61,0,0,0-34.63,27.38c-6.4,14.87-4.22,32.14,3.83,46,16.94,29.1,54.16,35.23,82.38,19.24,28.65-16.24,40.78-49.9,32.57-81.18a86.77,86.77,0,0,0-63.63-61.79c-30.9-7.14-64.33,3.59-87.84,24.2a106.76,106.76,0,0,0-35.95,83.75C66.24,241.1,118.74,294.83,182.72,301A130.42,130.42,0,0,0,207,301c6.36-.57,6.42-10.58,0-10Z"/></g></g></g></svg>