<svg id="artboard_2" data-name="artboard 2" xmlns="http://www.w3.org/2000/svg" viewBox="0 0 155 89"><defs><style>.cls-1{fill:#915385;}.cls-2{fill:#512c4c;}.cls-3{fill:#542f4f;}.cls-4{opacity:0.8;}.cls-5{fill:#6e4167;}.cls-6{fill:#5e425a;}.cls-7{fill:#694664;}.cls-8{fill:#6e4968;}.cls-9{fill:#3f1c2a;}.cls-10{font-size:48px;font-family:Magneto-Bold, Magneto;font-weight:700;}</style></defs><title>exit knapp</title><path class="cls-1" d="M144.42,48.5c0,4-4.33,8.06-6.64,11.61-2,3.08-6.69,3.83-10.16,6.47-3,2.25-6.86,2.31-10.72,4.15-3.43,1.64-5.47,6.52-9.49,7.77-3.67,1.14-7,5-11.06,5.74-3.81.72-7.82,3.63-11.92,4-3.9.35-8.34-7.6-12.43-7.6s-8,1.61-11.85,1.26c-4.1-.37-9,4.68-12.81,3.95-4.08-.78-8.21-2.57-11.88-3.72-4-1.25-4.57-10.52-8-12.15-3.86-1.85-9,0-12-2.2C12,65.14,12.4,60.48,10.4,57.39c-2.31-3.54-1.85-4.94-1.85-8.89s-6.12-9-3.81-12.58c2-3.08,6.49-5.06,10-7.7,3-2.25,7.93-1.38,11.79-3.22,3.43-1.63,5.05-8.55,9.06-9.8,3.67-1.15,8.54,1.14,12.62.36,3.82-.72,7.83-.49,11.93-.86,3.89-.35,7.8-1.13,11.89-1.13s8.54-5.2,12.43-4.84c4.1.37,8.15,3.09,12,3.81,4.08.78,9-.66,12.72.49,4,1.25,5.76,8.68,9.18,10.31,3.87,1.85,8.52,2,11.49,4.25,3.47,2.64,9.13,4.18,11.13,7.26C143.22,38.4,144.42,44.55,144.42,48.5Z"/><path class="cls-2" d="M31.69,45.08c8,1.53,16.37,4,24.5,4S71,43.38,79,43.78c1.93.1,1.92-2.9,0-3-7.33-.37-13.23,4.38-20.32,5.18-8.47.95-17.88-2.18-26.18-3.77-1.89-.36-2.7,2.53-.8,2.89Z"/><path class="cls-3" d="M29.87,43a36.55,36.55,0,0,0,32.25-5.63c1.55-1.12.06-3.73-1.51-2.59-8.85,6.38-19.43,8.47-29.94,5.33-1.85-.56-2.64,2.34-.8,2.89Z"/><g class="cls-4"><path class="cls-5" d="M92.81,57.85a8.05,8.05,0,0,0-2.54,1.32c-.47.33-.93.71-1.44,1.1s-1.07.76-1.61,1.16-1,.82-1.6,1.2l-1.65,1c-.53.32-1,.65-1.5.89s-1,.42-1.36.57c-.58.28-1.09.52-1.55.71a10.35,10.35,0,0,1-1.28.34c-.31.06-.13,0,.4-.19.26-.09.63-.17,1-.33l1.4-.53,1.45-.73c.5-.3,1-.66,1.6-1a21.41,21.41,0,0,1-4.81.79,14.91,14.91,0,0,1-2.21,1,22,22,0,0,1-10.29,1.91c-.32,0-.72-.06-1.17-.07s-1-.11-1.44-.17-1-.14-1.42-.23a7.65,7.65,0,0,1-1.11-.4,31.54,31.54,0,0,0,3.74.45,27.14,27.14,0,0,0,7.46-.82c.61-.17,1.2-.4,1.8-.6l.9-.3c.3-.12.58-.27.87-.4a3,3,0,0,1-.42.06A23.81,23.81,0,0,1,68.34,66a4,4,0,0,1-1.33,0,8.45,8.45,0,0,0,1.33,0A16,16,0,0,0,70,65.66c.56-.12,1.09-.38,1.69-.53A10.94,10.94,0,0,1,72.92,65a10.41,10.41,0,0,0,1.19-.25,15.47,15.47,0,0,1,2-.12l1.11-.44a2.37,2.37,0,0,1,.3-.23h0A5.42,5.42,0,0,0,75,63.81c-1.16,0-2.48.15-3.82.07s-2.62-.15-3.65-.18a8.28,8.28,0,0,0-2.22-.1,5.17,5.17,0,0,0-1.78.72,3.94,3.94,0,0,1-2,.53c-.47,0-.8-.38-1.21-.2a.9.9,0,0,1-.49.39c-1-.12-1.7-1-2.56-.71-.61.07-.94-3.31-1.2-2.82-1.09,1.86-.31.5-1.33-.09-.11-.1-.88.56-1.11.33-.69-.9-1.25-.33-2.4-.61-1.85-.2-1.54-1.52-3.55-1.14a12.54,12.54,0,0,1-1.49-.22l-1.3-.3a19.27,19.27,0,0,0-2.18-1.24,2.38,2.38,0,0,1-1.31-1.91c-2.21,0-3.09-2.7-4.65-3.71s-1.45-2.38-2-4.14c-.23-.42-.55-.59-.54-1s-1-.26-1.25-.69l.49-.33-.29-.57c-.08-.14.09-.25.25-.36.33-.22.66-.44.68-.82a10.34,10.34,0,0,0-.77-1.9c-.64-.26-1.31-.5-2-.72a3.48,3.48,0,0,1-.66.38L30,42.36c-.51.3-1,.74-1.31.93-1.23,1.08-3,1.49-4,2.58-.28.36.39,1.36.18,2.27-.09.25-.68.39-1.2.68.48.54,0,1-.55,1.12l.15.32-.68.39c.7,1.86,1.16,4.35,3,5.11a6.44,6.44,0,0,0,1.63.43c.25,0,.37.61.46.76a5.61,5.61,0,0,0,1.46-1c.55,1.32,2.07,4,3.36,2.33.75.75,1.51.16,2.42.76l4.26,2.78a25.4,25.4,0,0,1,2.45,1.55l.89.54c3.08,1.82,5.71,3.59,8.58,5a19.39,19.39,0,0,0,9.79,2.14,72.52,72.52,0,0,0,10.93-1.42,43.31,43.31,0,0,0,9.65-3.34A50.5,50.5,0,0,0,92.7,59.11Z"/></g><g class="cls-4"><path class="cls-6" d="M79.14,30.13a3.66,3.66,0,0,0-1.42.68c-.47.29-.87.67-1.32,1A6.43,6.43,0,0,1,74,33.28a2.55,2.55,0,0,1-1.15.29c-.28,0,.23-.1,1.15-.29a7.1,7.1,0,0,0,1.15-.68,8,8,0,0,1-2.62-.38,3.48,3.48,0,0,1-.69.36,4.73,4.73,0,0,1-3.08.57c-.37-.08-1.13-.1-1.41-.5a5.8,5.8,0,0,0,3.9-.7l-.16,0a5.49,5.49,0,0,1-2.15.14.49.49,0,0,1-.34-.06l.34.06c.28,0,.47-.33.71-.48s.5.13.69.06.47.18.75.28l.33-.11a.24.24,0,0,1,0-.12h0c-.61-.49-1.67-.85-2.35-1.32s-1-.89-1.12-.73-.27,1.51-.59,1.65c-.1,0-.14-.32-.24,0a2.45,2.45,0,0,1-.16.48c-.22.05-.25-.6-.48-.27l-.07.1c-.09.09,0-.65.2-1.33s.37-1.29.26-1c-.85,2-.25.53-.3.29,0,0-.44.72-.44.6.14-.55-.26.08-.56.15s-.31,0-.31-.14-.06-.17-.64.21a4,4,0,0,1-1.14.24c-.13-.46-1.24-.23-.15-1.32-.67.12-.77-.16-.69-.49s.28-.68.09-.86c-.37-.38.59-.88,1.45-1.34.13-.11,0-.16.29-.25s-.54-.1-.41-.2l.58,0,.18-.12a2.59,2.59,0,0,1,.44,0,9.8,9.8,0,0,0,1.06-.09l.75-.2-1-.2-.75-.08-.42-.12L63.32,25c-1.63-.15-3.19-.6-4.68-.75-.43,0-.61.39-1.4.55a7.93,7.93,0,0,1-1.34-.22c0,.31-.65.3-1.17.13l-.11.15-.77-.12c-.78.84-2.13,2.09-1.29,3a3,3,0,0,0,.94.62c.16.08-.13.37-.17.47a9.58,9.58,0,0,0,1.74-.17A2.45,2.45,0,0,0,54.64,30c.06.42.43.65,1.4.29.06.48,1,.22,1.26.59s.83,1.11,1.3,1.7a5.09,5.09,0,0,1,.76.92l.29.34c.82.85,1.48,1.69,2.26,2.44a5.8,5.8,0,0,0,2.76,1.55,5.2,5.2,0,0,0,1.12.05A4.69,4.69,0,0,0,67,37.56c1.56-.72,2.82-1.3,4.06-1.81s2.51-1,3.67-1.55a14.32,14.32,0,0,0,5-3.38C79.49,30.58,79.32,30.35,79.14,30.13Z"/></g><g class="cls-4"><path class="cls-7" d="M110,44.86c-.7-1.79-2.57-2.13-3.2-3.09a2.09,2.09,0,0,1-.57-.69c-.09-.22.16.1.57.69a7.42,7.42,0,0,0,.76.53A14.1,14.1,0,0,1,107,40a3.5,3.5,0,0,1-.49-.29,6.21,6.21,0,0,1-1.92-1.5c-.17-.28-.68-.59-.73-1a13.52,13.52,0,0,0,2.79,1.68,1.31,1.31,0,0,1,0-.15,11.5,11.5,0,0,1-1.31-1.3.49.49,0,0,1-.2-.24l.2.24c.22.11.49,0,.75.06s.22.43.36.52a2.66,2.66,0,0,1,.2.72l.22.18.09,0v0a8.35,8.35,0,0,0-.47-2.63c-.25-.82-.48-1.42-.66-1.36s-1,1.13-1.35,1.12c-.1,0,0-.34-.21-.12a2.52,2.52,0,0,1-.3.38c-.22,0,0-.72-.44-.31-.24.13,1.27-2.64.94-2.16-1.24,1.73-.34.47-.4.2,0,0-.57.61-.56.5.17-.54-.3,0-.62.07-.7.33.12-.76-1,.08a10.27,10.27,0,0,1-1.08.4c-.14-.41-1.1.15-.23-1.1-1.19.61-.38-.76-.77-.89s.32-.91.91-1.68c.07-.15,0-.14.17-.34s-.53.16-.46,0l.5-.31.1-.19a1.56,1.56,0,0,1,.36-.25,7,7,0,0,0,.88-.59,5.8,5.8,0,0,0,.5-.64l-1,.26-.66.35-.42.13-1.41.76c-1.43.8-2.92,1.41-4.21,2.16-.38.23-.36.54-1,1a11.73,11.73,0,0,1-1.21.61c.09.16-.44.49-.94.68l0,.13-.69.35c-.37.81-1.22,2.11-.29,2.15a2.77,2.77,0,0,0,.91-.11c.16,0,0,.28,0,.35.48-.24,1-.62,1.47-.93-.26.62-.53,1.91,1.07.58.1.29.88-.29,1.14-.14a8.65,8.65,0,0,1,1.15.72,1.37,1.37,0,0,1,.6.45l.2.16a4,4,0,0,1,.91.94c.27.33.51.68.78,1a2.32,2.32,0,0,0,2.43.8c2.31-.56,3.64.3,5,1.45a28.29,28.29,0,0,0,3.22,2.7Z"/></g><g class="cls-4"><path class="cls-8" d="M129,59.24c-.93-.74-2.52-.84-4.15-1l-2.39-.12a12.21,12.21,0,0,1-1.95-.3,6.31,6.31,0,0,1-1.81-.41c-.38-.17.47.06,1.81.41.59.06,1.3.12,2.13.16a28.88,28.88,0,0,1-2.87-1.87,12.68,12.68,0,0,1-1.5-.08L116.64,56,115,55.83a16.2,16.2,0,0,1-3.21-.6,13.93,13.93,0,0,1-3.15-.94,49.31,49.31,0,0,0,9.41.94,1.23,1.23,0,0,1-.26-.12c-.84-.08-1.67-.2-2.49-.35s-1.64-.28-2.45-.48a3.27,3.27,0,0,1-.84-.19l.84.19a13.17,13.17,0,0,0,2.22-.14c.49,0,1,.35,1.54.39a4,4,0,0,1,1.18.58l.75.09a.85.85,0,0,1,.22-.09v0c-.37-.77-2.1-1.54-3.78-2.29-.84-.33-1.67-.67-2.36-.9a4.15,4.15,0,0,0-1.47-.29c-.77.1-1.63,1.27-2.54,1.31-.3,0-.5-.37-.77-.12a.91.91,0,0,1-.32.43c-.61,0-1.07-.81-1.63-.32-.38.17-.58-3.1-.75-2.54-.7,2-.2.55-.86.2-.08-.07-.57.71-.72.58-.45-.67-.8,0-1.55,0-1.21.36-1-1-2.32,0-.15.1-1.85.44-1.85.44-1-.6-2.11.09-2.37-1.62-1.48.74-2.13-1.22-3.2-1.53s-1-1.45-1.37-2.72c-.15-.27-.37-.29-.36-.62s-.73.18-.89-.08l.36-.46-.2-.35c0-.09.08-.24.2-.39a2,2,0,0,0,.51-.93,6.41,6.41,0,0,0-.5-1.24,13.57,13.57,0,0,0-1.45.2,5.6,5.6,0,0,1-.51.55l-.52.17c-.4.44-.74,1-1,1.25-.94,1.34-2.29,2.35-3.07,3.62-.22.39.3.91.13,1.73-.07.24-.53.58-.92,1,.36.25,0,.78-.43,1.11l.12.2-.52.58c.27.63.49,1.42.81,2.06a1.72,1.72,0,0,0,1.48,1.09A3.55,3.55,0,0,0,85.35,55c.19,0,.28.4.35.5a10,10,0,0,0,1.07-1.39c.43.89,1.58,2.65,2.47.77.54.4,1.1-.42,1.75-.22.88.22,1.94.63,3,1a7.82,7.82,0,0,1,1.69.57c.2.08.41.14.6.2a26.32,26.32,0,0,1,2.93,1.1c.93.36,1.81.77,2.72,1.09a16.14,16.14,0,0,0,2.82.69,10.57,10.57,0,0,0,3.14-.15A35.73,35.73,0,0,1,120.44,59c3.77.53,7,1.07,8.14,1.05Z"/></g><path class="cls-9" d="M63,49.08A78.75,78.75,0,0,1,47,33.31"/><text class="cls-10" transform="translate(29.37 58.32)">Exit</text></svg>