<svg id="artboard_2" data-name="artboard 2" xmlns="http://www.w3.org/2000/svg" viewBox="0 0 164 96"><defs><style>.cls-1{fill:#009ee2;}.cls-2{fill:#1d1d1d;}</style></defs><title>omstart</title><path class="cls-1" d="M156.42,49.5c0,4-4.33,8.06-6.64,11.61-2,3.08-6.69,3.83-10.16,6.47-3,2.25-6.86,2.31-10.72,4.15-3.43,1.64-5.47,6.52-9.49,7.77-3.67,1.14-7,5-11.06,5.74-3.81.72-7.82,3.63-11.92,4-3.9.35-8.34-7.6-12.43-7.6s-8,1.61-11.85,1.26c-4.1-.37-9,4.68-12.81,3.95-4.08-.78-8.21-2.57-11.88-3.72-4-1.25-4.57-10.52-8-12.15-3.86-1.85-9,0-12-2.2C24,66.14,24.4,61.48,22.4,58.39c-2.31-3.54-1.85-4.94-1.85-8.89s-6.12-9-3.81-12.58c2-3.08,6.49-5.06,10-7.7,3-2.25,7.93-1.38,11.79-3.22,3.43-1.63,5-8.55,9.06-9.8,3.67-1.15,8.54,1.14,12.62.36,3.82-.72,7.83-.49,11.93-.86,3.89-.35,7.8-1.13,11.89-1.13s8.54-5.2,12.43-4.84c4.1.37,8.15,3.09,12,3.81,4.08.78,9-.66,12.72.49,4,1.25,5.76,8.68,9.18,10.31,3.87,1.85,8.52,2,11.49,4.25,3.47,2.64,9.13,4.18,11.13,7.26C155.22,39.4,156.42,45.55,156.42,49.5Z"/><path class="cls-2" d="M108.33,49a9.7,9.7,0,0,1-2.08,5.7A17.73,17.73,0,0,1,101,59.2,29.09,29.09,0,0,1,94.26,62a40,40,0,0,1-7.42,1.21A42.29,42.29,0,0,1,79.29,63,34.71,34.71,0,0,1,72,61.14c-.59-.25-1.09-.4-1.58-.65s-1-.47-1.48-.73l-1.42-.83-1.33-1a13.4,13.4,0,0,1-4.14-5,9.59,9.59,0,0,1-.52-6.42A11.71,11.71,0,0,1,65,41a19.88,19.88,0,0,1,5.49-3.57,28.93,28.93,0,0,1,3.36-1.24,16,16,0,0,1,1.8-.5c.61-.13,1.21-.32,1.83-.4a38,38,0,0,1,15,.22,28.8,28.8,0,0,1,7,2.43l.56.27.18.1.35.21.7.41-6.69,11a18.24,18.24,0,0,1,7.79-3.68,11.47,11.47,0,0,1,2.26-.17,9.91,9.91,0,0,1,2.34.32,6.87,6.87,0,0,1,1.16.39c.37.16.76.34,1.16.55A12.66,12.66,0,0,1,111.5,49a14.83,14.83,0,0,0,1.79-2.34c.24-.43.47-.9.7-1.39a9.8,9.8,0,0,0,.58-1.53,18.06,18.06,0,0,0,.71-3.33,22.1,22.1,0,0,0,.12-3.55,35.61,35.61,0,0,0-4.07-14.27l-6.7,11-.9-.52-.44-.27-.23-.12-.69-.34a35.89,35.89,0,0,0-8.46-2.95,44.56,44.56,0,0,0-17.56-.26c-.74.11-1.45.32-2.17.48a20.11,20.11,0,0,0-2.15.59,35.05,35.05,0,0,0-4.32,1.62,27.74,27.74,0,0,0-8,5.44,17.48,17.48,0,0,0-4.84,8.16,14.9,14.9,0,0,0,.71,9.39c2.47,6,8.33,10.08,14.26,12.31a40.73,40.73,0,0,0,8.63,2.17,47.21,47.21,0,0,0,8.81.33A44.92,44.92,0,0,0,96,68.15a34.84,34.84,0,0,0,8.31-3.49,24.09,24.09,0,0,0,7.08-6.18A16,16,0,0,0,114.67,49Z"/></svg>