<svg xmlns="http://www.w3.org/2000/svg" viewBox="0 0 379.1 278.6"><defs><style>.cls-1{fill:#ff7bac;}.cls-2{font-size:46px;font-family:Magneto-Bold, Magneto;font-weight:700;}</style></defs><title>Prøv igjen knapp</title><g id="Layer_9" data-name="Layer 9"><path class="cls-1" d="M236.27,123.27C244,134.59,257,138.59,268,146.59a11.27,11.27,0,0,1,2,16,6.16,6.16,0,0,1-7,1c-9-3-17-7-27-9-8-2-14,3-14.53,11.19a61.21,61.21,0,0,1-.5,7.41,11.42,11.42,0,0,1-3,6.4c-11,11-16-9-26-11a7.39,7.39,0,0,0-4.85,4.82c-2.74,6.93-.78,18.93-8.65,24.15a19.49,19.49,0,0,1-5.5,4c-5,3-11-1-15.7-4.5a44.52,44.52,0,0,1-5.55-7.62c-5-8.38-8.75-18.38-14.75-24.88-8,17,1,36-9,53-3,6-11,1-14-4-7-15,2-35-8-47-7-8-19,7-27.63,12.5a66,66,0,0,1-8.26,4.47,23,23,0,0,1-9.11,2c-2,0-3-2-3-4a42.2,42.2,0,0,1,3.25-7.08,45.81,45.81,0,0,1,4.37-6.29C67,166.59,68,164.59,70,162.59a76.3,76.3,0,0,1,7.17-4.78,50.05,50.05,0,0,1,8.64-5.08C93,147.59,104,145.59,103,136.59c0-8-10-10-16.14-15-1.91-1-3.89-1.9-5.92-2.76-8.13-3.45-17.07-6-24.94-9.29-5-3-12-9-8-15,15-15,32.08-.14,47.2,5.81a28.89,28.89,0,0,0,8.8,2.19c3.5.17,5.92-.53,7.53-1.87A8.38,8.38,0,0,0,114.22,95c1.11-9.7-6.22-26.37-4.22-36.37,1-5,8-7,13-4,10,7,14,18,23,26a8.94,8.94,0,0,0,8.15,1.69,9.31,9.31,0,0,0,6.08-6,68.26,68.26,0,0,1,4.23-6.29c1.53-1.84,3.28-3.22,5.53-3.47,9.75-.75,9.38,10.32,12,19.16a16.87,16.87,0,0,0,4.08,7.58c3,2.42,6.44,0,10.06-3.61s7.37-8.63,10.87-11.14c1.51-1.76,2.93-3.62,4.32-5.5,5.58-7.52,10.72-15.34,19.51-17.67A11.6,11.6,0,0,1,238,57.59c3.38,2.63,4.08,6.24,3.89,10.28C239,79.59,238,97.59,255,96.59c11-1,23-6,34-2,4,2,6,8,3,11-12,15-33,12-49.78,15.92A46.53,46.53,0,0,0,236.27,123.27Z"/><text class="cls-2" transform="translate(42.52 146.5)">Prøv igjen!</text></g></svg>