<svg xmlns="http://www.w3.org/2000/svg" xmlns:xlink="http://www.w3.org/1999/xlink" viewBox="0 0 522 826"><defs><style>.cls-1{fill:#009ee2;}.cls-2{fill:#c9c34e;}.cls-3{fill:#3c3c3b;}.cls-4{fill:none;}.cls-4,.cls-5{stroke:#1d1d1b;stroke-miterlimit:10;}.cls-5{stroke-width:7px;fill:url(#Fading_Sky);}</style><linearGradient id="Fading_Sky" x1="257.07" y1="401.78" x2="347.61" y2="401.78" gradientTransform="translate(-41.6 -66.93)" gradientUnits="userSpaceOnUse"><stop offset="0" stop-color="#2580c3"/><stop offset="1" stop-color="#2580c3" stop-opacity="0"/></linearGradient></defs><title>romskip</title><g id="artboard_1" data-name="artboard 1"><g id="romskip"><path class="cls-1" d="M230.22,546.06c-18.39,21.6-52.43,56.24-90.15,76.88a362.37,362.37,0,0,0-29.22-27.31c17.12-10.6,34.61-28.83,50-46.3,15.44-17.79,28.79-34.82,38.58-50.23C208.76,512.2,219.33,527.83,230.22,546.06Z"/><path class="cls-1" d="M288.24,550.22c15.93,8.79,41.85,38.23,98.12,74.57,12.21-12.37,21.1-23.82,27.13-33.48-54.75-37.42-78.39-75.86-91.18-90.43A238.4,238.4,0,0,1,288.24,550.22Z"/><path class="cls-2" d="M342.49,402.44C348,522,316.17,664.11,267.39,664.93S170.31,514,179.92,395c4.47-55.32.21-28.87,31.63-142.3,5.17-18.67,46.71-133,46.71-133s38,102.2,48.59,130.91C333.39,322.45,339.24,332.19,342.49,402.44Z"/><path class="cls-3" d="M336.6,708.7a651,651,0,0,0-141.24,1.67q15-35,30.78-70.1a358.47,358.47,0,0,1,77.34-1.91Q319.71,673.49,336.6,708.7Z"/><path class="cls-4" d="M336.6,708.7a651,651,0,0,0-141.24,1.67q15-35,30.78-70.1a358.47,358.47,0,0,1,77.34-1.91Q319.71,673.49,336.6,708.7Z"/><ellipse class="cls-5" cx="260.74" cy="334.85" rx="45.27" ry="63.87" transform="translate(-5.57 4.41) rotate(-0.96)"/><path class="cls-3" d="M90.73,704.93c-.85-50.54,3.65-133.72,33.35-134.22,16.14-.27,30.61,82.6,31.46,133.13"/><path class="cls-3" d="M375.52,704.34c-.84-50.54,3.65-133.72,33.35-134.22,16.14-.27,30.62,82.6,31.47,133.13"/></g></g></svg>