<svg id="Layer_1" data-name="Layer 1" xmlns="http://www.w3.org/2000/svg" xmlns:xlink="http://www.w3.org/1999/xlink" viewBox="0 0 538 608"><defs><style>.cls-1{fill:#dd6d22;}.cls-2{fill:#915385;}.cls-3{fill:#009ee2;}.cls-4{fill:#a7e4f9;}.cls-5{fill:#c9c34e;}.cls-6{fill:#3c3c3b;}.cls-7{fill:none;}.cls-7,.cls-8{stroke:#1d1d1b;stroke-miterlimit:10;}.cls-8{stroke-width:7px;fill:url(#Fading_Sky);}</style><linearGradient id="Fading_Sky" x1="-69.24" y1="-1644.72" x2="-14.7" y2="-1644.72" gradientTransform="translate(-1316.54 248.46) rotate(90)" gradientUnits="userSpaceOnUse"><stop offset="0" stop-color="#2580c3"/><stop offset="1" stop-color="#2580c3" stop-opacity="0"/></linearGradient></defs><title>romskip Spillskærm</title><g id="romskip"><path class="cls-1" d="M167.53,466.54c-4.15,10.22-9,26.95,4.5,33,16.11,6.67,28.92-10,42.13-6.92,7.92,1.85,3.44,19.71,13.19,23.58,16.52,6,20.46-17.79,21.35-31.24,1.9-20.3.7-38.7,7.55-58.89,3.79-9.88,4.41-26.28-9.2-28.69C204.33,390,188.25,432.7,170.31,461,169.26,462.93,168.33,464.8,167.53,466.54Z"/><path class="cls-2" d="M186.59,450.26c-3,11.67-12.42,33.15-.18,33.35,8.59.63,10.72-20,21.42-18.79,17.83,2,2.69,29.84,13.44,37.56,10.1,7,16.78-15.81,18-26.19a46.4,46.4,0,0,1,4.07-13.07c8.19-16.44,18-34.7,14-51.34-1.59-5.52-6.54-6.58-11.09-4.42-5,3-9.82,6-14.72,8.95q-2.44,1.45-4.93,2.87c-13.28,6.69-28.05,10-36.69,24.59A56.56,56.56,0,0,0,186.59,450.26Z"/><path class="cls-3" d="M234.07,463.56c-4.95,6.95-13,21.75-16.47,15.51-2.68-4.16,7-14.8,3.4-19.78-5.91-8.31-15.53,12.39-22.31,10.39-6.25-2,3.2-16,8-21.42a43.67,43.67,0,0,0,5.34-8.15c5.89-11.84,12.22-25.36,21.59-30.95,3.17-1.73,5.06.34,5.24,3.7-.12,4-.28,7.87-.37,11.76,0,1.29-.05,2.59-.06,3.88.35,10,2.77,19.16-2.05,30.36C235.63,460.58,234.85,462.14,234.07,463.56Z"/><path class="cls-4" d="M162.67,398.2c-4.18,4.33-15.56,27.13-19.33,26.85-1.93-2.59,9.74-22.17,6.08-23-2.71-1.86-6.18,2.13-11,11.25-4.65,8.54-10.67,22.21-14.12,26.17-3,3.43,0-7.24,3.4-17.45,3.57-10.59,7.6-20.72,10-25.07,2-4.12,3.81-7.72,5.29-11.44,5.56-14.21,10.27-20.67,18.08-20.17a4.39,4.39,0,0,1,4.24,4.06c-.09,2.31-.17,4.51-.15,6.68,0,.72,0,1.44.06,2.15.5,5.9,3.68,9.51-.37,16.52C164.15,395.87,163.43,397,162.67,398.2Z"/><path class="cls-4" d="M325,473.33a33.74,33.74,0,0,0-3.74,5.25c-1.12,1.93-4.25,7.39-7.62,13.49-3.29,5.77-6.83,12.17-6.79,8.13,0-4.65,1.91-13.24,3.57-17.85.08-1.43,1-8,.26-8.22-5.6-.68-10,5.55-11.77,14.44-3.08,14.24-6.06,5.09-2.06-9,1.13-3.77,2.67-6.69,3.75-9.52a97.24,97.24,0,0,0,4.63-14.91c.67-2.16,1.33-4.1,2-5.83,3.28-8.8,6.83-11.7,12.28-10.41a7,7,0,0,1,4.83,5.38c.21,2.59.42,5,.73,7.33.11.78.22,1.55.36,2.3.88,3.73,2.71,6.78,3.3,9.79a7.89,7.89,0,0,1,0,3.21,11.11,11.11,0,0,1-1.42,3.09C326.58,471.08,325.8,472.19,325,473.33Z"/><path class="cls-3" d="M261.26,320.3c-9.13-.25-20.95,1.16-34.19,4.78-13.19,3.33-27.79,8.86-41.17,9.92a54.26,54.26,0,0,1-2.9-16.58c23.39-14.36,48.26-30.53,62.69-33.92C250.68,295.68,256,308,261.26,320.3Z"/><path class="cls-3" d="M293.77,332.19c1.69,14.62,8.12,32.56,24.57,59.71,12.7-2.54,24.7-6.49,35.09-9.69C329.21,357.15,317.9,328.4,313,308.68,308,315.11,301.41,323.67,293.77,332.19Z"/><path class="cls-5" d="M356.6,263.72c-26.26,67.16-78.62,137.54-105.67,126s-16.42-106.86,18-170c16-29.35,7.2-15.84,52.29-70.56,7.42-9,58.3-61.73,58.3-61.73s-4.15,65.54-5.35,84C371.2,217.47,372,224.26,356.6,263.72Z"/><path class="cls-6" d="M276.27,425.1c-28-10.13-51.29-17.69-69.58-23.92a246.72,246.72,0,0,0,25.52-40c12.38,7.59,29.66,16.11,51.65,26.79A122.37,122.37,0,0,1,276.27,425.1Z"/><path class="cls-7" d="M276.27,425.1c-28-10.13-51.29-17.69-69.58-23.92a246.72,246.72,0,0,0,25.52-40c12.38,7.59,29.66,16.11,51.65,26.79A122.37,122.37,0,0,1,276.27,425.1Z"/><ellipse class="cls-8" cx="328.18" cy="206.49" rx="38.47" ry="27.27" transform="translate(9.68 427.62) rotate(-66.95)"/><path class="cls-6" d="M143.91,368.47c11.93-28,34.79-72.69,51.25-65.68,9,3.8-3.39,52.95-15.31,81"/><path class="cls-6" d="M300.78,438c11.92-28,34.78-72.69,51.25-65.68,9,3.81-3.4,53-15.32,81"/></g></svg>