<svg id="Layer_2" data-name="Layer 2" xmlns="http://www.w3.org/2000/svg" xmlns:xlink="http://www.w3.org/1999/xlink" viewBox="0 0 1102.12 687.97"><defs><style>.cls-1{opacity:0.21;fill:url(#Orchid);}.cls-11,.cls-2,.cls-3,.cls-4{fill:none;stroke-miterlimit:10;}.cls-2,.cls-3,.cls-4{stroke:#3fa9f5;}.cls-2{stroke-width:5px;}.cls-3{stroke-width:10px;}.cls-4{stroke-width:4px;}.cls-5{fill:#ff7bac;}.cls-6{fill:#f9b2cf;}.cls-7,.cls-8{font-size:48px;font-family:Magneto-Bold, Magneto;font-weight:700;}.cls-7{fill:#e6e6e6;}.cls-8{fill:#fff;}.cls-9{opacity:0.8;}.cls-10{fill:#b84675;}.cls-11{stroke:#000;stroke-linecap:round;stroke-width:8px;}</style><linearGradient id="Orchid" x1="12.62" y1="377.77" x2="986.62" y2="377.77" gradientUnits="userSpaceOnUse"><stop offset="0" stop-color="#ff7bac"/><stop offset="0.22" stop-color="#ff7bac" stop-opacity="0.76"/><stop offset="0.6" stop-color="#ff7bac" stop-opacity="0.36"/><stop offset="0.87" stop-color="#ff7bac" stop-opacity="0.1"/><stop offset="1" stop-color="#ff7bac" stop-opacity="0"/></linearGradient></defs><title>bg settings</title><g id="underlag_gradient" data-name="underlag gradient"><path class="cls-1" d="M986.62,662h-974V94H355.47c11.69,0,23.5-1.2,35.4,0H986.62Z"/></g><g id="MU_justeringsparameter" data-name="MU justeringsparameter"><line class="cls-2" x1="390.12" y1="257.84" x2="817.13" y2="257.41"/><polygon class="cls-3" points="862.26 246.09 840.48 233.76 818.92 246.46 819.13 271.48 840.9 283.81 862.47 271.11 862.26 246.09"/><polygon class="cls-4" points="387.61 252.7 379.55 248.14 371.56 252.84 371.64 262.1 379.7 266.66 387.69 261.96 387.61 252.7"/><ellipse class="cls-5" cx="794.62" cy="257.44" rx="18" ry="18.55" transform="translate(-0.26 0.8) rotate(-0.06)"/><path class="cls-6" d="M799.9,271.65c4.09-.9,9.31-7.9,6.05-8.43-6.06-.81-20.26-4.16-19.2,5.61.66,3.42,5.55,4.22,9,3.73A14,14,0,0,0,799.9,271.65Z"/></g><g id="musikk"><path class="cls-5" d="M218.94,252.19c5.16,7.57,13.85,10.24,21.2,15.58a7.53,7.53,0,0,1,1.33,10.69,4.1,4.1,0,0,1-4.67.67c-6-2-11.36-4.67-18-6-5.35-1.34-9.35,2-9.71,7.47a41,41,0,0,1-.33,5,7.6,7.6,0,0,1-2,4.28c-7.35,7.35-10.69-6-17.37-7.35a4.94,4.94,0,0,0-3.24,3.22c-1.83,4.63-.51,12.64-5.78,16.14a12.78,12.78,0,0,1-3.67,2.69c-3.34,2-7.35-.67-10.49-3a30,30,0,0,1-3.71-5.09c-3.34-5.6-5.84-12.28-9.85-16.62-5.34,11.36.67,24.05-6,35.41-2,4-7.35.67-9.36-2.68-4.67-10,1.34-23.38-5.34-31.39-4.68-5.35-12.69,4.67-18.46,8.35a44.58,44.58,0,0,1-5.52,3,15.26,15.26,0,0,1-6.08,1.36c-1.34,0-2-1.34-2-2.67a29.15,29.15,0,0,1,2.17-4.74,32.12,32.12,0,0,1,2.92-4.2,46.09,46.09,0,0,1,2.93-3.76,50.42,50.42,0,0,1,4.79-3.19,32.81,32.81,0,0,1,5.77-3.39c4.81-3.44,12.15-4.77,11.49-10.79,0-5.34-6.68-6.68-10.79-10-1.27-.66-2.59-1.27-4-1.84-5.43-2.3-11.4-4-16.66-6.2-3.34-2-8-6-5.35-10,10-10,21.44-.1,31.53,3.88a19.56,19.56,0,0,0,5.88,1.46c2.34.11,4-.35,5-1.25a5.57,5.57,0,0,0,1.8-3.85c.75-6.48-4.15-17.61-2.82-24.29.67-3.34,5.35-4.68,8.69-2.68,6.68,4.68,9.35,12,15.37,17.39a6,6,0,0,0,5.44,1.13,6.22,6.22,0,0,0,4.07-4,43.88,43.88,0,0,1,2.82-4.2,5.7,5.7,0,0,1,3.7-2.32c6.51-.5,6.26,6.89,8,12.8a11.19,11.19,0,0,0,2.73,5.06c2,1.62,4.3,0,6.72-2.41s4.92-5.77,7.25-7.44c1-1.18,2-2.42,2.9-3.68,3.72-5,7.16-10.25,13-11.8a7.66,7.66,0,0,1,4.79,1.46c2.26,1.75,2.73,4.16,2.6,6.86-1.93,7.83-2.6,19.86,8.76,19.19,7.35-.67,15.37-4,22.72-1.33,2.67,1.33,4,5.34,2,7.34-8,10-22.05,8-33.26,10.64A31,31,0,0,0,218.94,252.19Z"/><text class="cls-7" transform="translate(89.84 270.36)">Musikk </text></g><g id="LY_juseringsparameter" data-name="LY juseringsparameter"><line class="cls-2" x1="392.12" y1="472.84" x2="819.13" y2="472.41"/><polygon class="cls-3" points="864.26 461.09 842.48 448.76 820.92 461.46 821.13 486.48 842.9 498.81 864.47 486.11 864.26 461.09"/><polygon class="cls-4" points="389.61 467.7 381.55 463.14 373.56 467.83 373.64 477.1 381.7 481.66 389.69 476.96 389.61 467.7"/><ellipse class="cls-5" cx="796.62" cy="472.44" rx="18" ry="18.55" transform="translate(-0.47 0.8) rotate(-0.06)"/><path class="cls-6" d="M801.9,486.65c4.09-.9,9.31-7.9,6.05-8.43-6.06-.81-20.26-4.16-19.2,5.61.66,3.42,5.55,4.22,9,3.73A14,14,0,0,0,801.9,486.65Z"/></g><g id="lyd"><path class="cls-5" d="M142.39,487.59c-5.73-7.14-14.59-9.14-22.33-13.9a7.54,7.54,0,0,1-2.16-10.56,4.11,4.11,0,0,1,4.61-1c6.15,1.53,11.69,3.78,18.45,4.6,5.43.92,9.17-2.72,9.1-8.19a41.21,41.21,0,0,1,0-5,7.51,7.51,0,0,1,1.65-4.41c6.76-7.9,11.12,5.17,17.88,6a4.94,4.94,0,0,0,3-3.46c1.47-4.76-.45-12.65,4.52-16.54a13.14,13.14,0,0,1,3.46-3c3.17-2.26,7.38.1,10.69,2.19a30,30,0,0,1,4.09,4.79c3.76,5.32,6.77,11.79,11.1,15.81,4.45-11.73-2.52-23.92,3.27-35.76,1.69-4.15,7.27-1.23,9.53,1.94,5.43,9.63.47,23.42,7.74,30.9,5.08,5,12.3-5.64,17.77-9.75a44.59,44.59,0,0,1,5.27-3.4,15.4,15.4,0,0,1,6-1.82c1.33-.1,2.1,1.18,2.21,2.51a29.38,29.38,0,0,1-1.8,4.89,31.43,31.43,0,0,1-2.59,4.41,44.15,44.15,0,0,1-2.63,4,51.72,51.72,0,0,1-4.53,3.56,33.76,33.76,0,0,1-5.5,3.82c-4.52,3.79-11.74,5.69-10.61,11.64.41,5.32,7.17,6.14,11.52,9.13,1.31.56,2.68,1.06,4.08,1.53,5.59,1.88,11.68,3.15,17.09,4.9,3.48,1.74,8.45,5.38,6.1,9.58-9.22,10.77-21.36,1.74-31.74-1.44a19.47,19.47,0,0,0-6-1c-2.34.07-3.92.66-4.92,1.64a5.55,5.55,0,0,0-1.5,4c-.24,6.52,5.5,17.25,4.68,24-.41,3.38-5,5.07-8.45,3.33-7-4.15-10.25-11.27-16.67-16.15a6,6,0,0,0-5.51-.71,6.24,6.24,0,0,0-3.75,4.28,43.22,43.22,0,0,1-2.49,4.41,5.66,5.66,0,0,1-3.5,2.59c-6.46,1-6.78-6.38-9-12.14a11.24,11.24,0,0,0-3.11-4.84c-2.09-1.46-4.29.32-6.51,2.93s-4.47,6.12-6.66,8c-.92,1.25-1.77,2.56-2.61,3.89-3.32,5.3-6.35,10.77-12.08,12.77a7.69,7.69,0,0,1-4.89-1.08c-2.39-1.58-3-3.95-3.12-6.65,1.32-8,1.06-20-10.21-18.46-7.28,1.23-15,5.18-22.55,3.08-2.76-1.12-4.4-5-2.56-7.17,7.22-10.61,21.36-9.69,32.34-13.16A30,30,0,0,0,142.39,487.59Z"/><text class="cls-8" transform="translate(85.44 489.36)">Lyd FX</text></g><g id="homeknapp"><path class="cls-5" d="M1087.6,95.54c0,3.91-5.11,8-6.77,11.69-1.54,3.37-6.85,4.11-9.65,7.17-2.48,2.72-6.52,2.66-9.88,5.09-3,2.17-3.16,8.49-6.8,10.38-3.33,1.73-5.38,7.08-9.17,8.54-3.53,1.36-6.65,5.81-10.53,6.92-3.66,1-10.22-9.06-14.15-8.26-3.74.75-7,3.81-10.92,4.32-3.8.49-7.06,8.76-11,9s-8.11-.66-12.08-.66-7.43-11.91-11.27-12.15-8.17,5.36-12,4.87c-4-.51-6.75-6.06-10.49-6.82-3.93-.79-6.89-2.94-10.55-4-3.87-1.11-10.83,8-14.36,6.6-3.79-1.46-6.48-5.55-9.81-7.28-3.64-1.89-4.36-7.74-7.37-9.91-3.36-2.42-11.75,1.06-14.23-1.66-2.8-3.07-1.4-9.37-2.94-12.74-1.65-3.64-1.38-7.23-1.38-11.13s0-7.38,1.63-11c1.53-3.37-2-11.47.83-14.54,2.48-2.72,8.21-3.82,11.57-6.24,3-2.17,5.14-7.72,8.78-9.61,3.33-1.73,10.82,4.54,14.61,3.08,3.52-1.36,6.25-5.61,10.13-6.72,3.65-1,6.75-6.17,10.68-7,3.74-.76,7.86-2.75,11.82-3.26,3.8-.49,8.3,1.12,12.27.87s8.09,3.53,12,3.53,7.77,3.3,11.61,3.54,8.52-5.37,12.32-4.88c4,.51,7.19,5.76,10.94,6.52,3.93.79,7.67,1.81,11.33,2.85,3.88,1.1,5.14,8.57,8.67,9.93,3.79,1.46,9.94-3.63,13.26-1.9,3.64,1.89,3.06,9.37,6.07,11.54,3.36,2.43,5.57,3.8,8,6.52,2.8,3.07,3.53,4.84,5.07,8.21C1075.59,90.63,1087.6,91.63,1087.6,95.54Z"/><path class="cls-5" d="M930.57,90.2c11.27,2.16,23.27,5.85,34.81,5.63,10.92-.21,20.07-8.22,31-7.46,1.93.13,1.92-2.87,0-3-10.47-.73-19,6.62-29.17,7.38-11.7.87-24.39-3.25-35.82-5.44-1.89-.36-2.69,2.53-.8,2.89Z"/><path class="cls-5" d="M928,87.35a50.12,50.12,0,0,0,44.51-7.79c1.54-1.13.05-3.73-1.52-2.59-12.31,9-27.53,12-42.19,7.49-1.85-.57-2.64,2.33-.8,2.89Z"/><g class="cls-9"><path class="cls-10" d="M1014.32,107.55a13.28,13.28,0,0,0-3.15,2.06c-.61.49-1.21,1-1.88,1.6l-2.11,1.67c-.72.57-1.41,1.18-2.14,1.72l-2.2,1.5c-.71.46-1.35.94-2,1.29s-1.27.64-1.8.88c-.79.41-1.48.77-2.1,1.07s-1.21.42-1.71.56-.16,0,.55-.27c.35-.14.85-.27,1.39-.52l1.87-.84,2-1.07c.67-.44,1.37-.94,2.14-1.48l-1.68.64c-.28.09-.55.19-.81.29l-.83.21c-1.07.27-2,.49-2.85.65l-.72.43c-.25.14-.52.25-.78.37l-1.57.7a32,32,0,0,1-14.41,3c-.45,0-1,0-1.66,0s-1.35-.12-2-.19-1.39-.15-2-.26a15,15,0,0,1-1.58-.47,43.26,43.26,0,0,0,5.32.58,37.92,37.92,0,0,0,5.33-.28,35.12,35.12,0,0,0,5.26-1c.86-.24,1.69-.59,2.54-.87l1.27-.45c.42-.17.81-.39,1.22-.58q-.29.09-.57.15c-.22.09-.43.19-.65.27l-.68.2-1.36.41a15.84,15.84,0,0,1-2.71.69c-.92.16-1.83.36-2.74.49l-2.77.2a7.18,7.18,0,0,1-1.91,0,13.53,13.53,0,0,0,1.91,0c.81-.11,1.6-.27,2.41-.44s1.58-.49,2.44-.71c.53-.12,1.13-.16,1.71-.26a15.82,15.82,0,0,0,1.68-.44,6.74,6.74,0,0,1,1.33-.23l.68-.06.66-.12,1.56-.67a3.65,3.65,0,0,1,.43-.31h0a8.74,8.74,0,0,0-3.24.27c-1.59.12-3.44.55-5.36.59a22.05,22.05,0,0,1-2.79.13h-2.53a19.07,19.07,0,0,0-3.28-.07,10,10,0,0,0-2.6.68,5.84,5.84,0,0,1-1.38.36,6.51,6.51,0,0,1-1.47.07c-.68-.06-1.18-.43-1.74-.29-.09.18-.37.26-.66.35-1.36-.21-2.5-1.19-3.66-1-.39,0-.86-.89-1.23-1.71s-.64-1.64-.82-1.38c-1.25,1.79-.35.48-1.86-.3-.17-.13-1.14.47-1.48.19-1.08-1.08-1.75-.56-3.35-1.05-2.49-.54-2.33-1.92-4.89-1.87a16.61,16.61,0,0,1-2-.51l-1.74-.57c-1.12-.8-2.15-1.26-3-1.8a4.17,4.17,0,0,1-2-2.44c-2.8-.39-4.4-3.72-6.55-5.21s-2.25-3.09-3.28-5.31c-.37-.55-.79-.82-.86-1.29s-1.3-.52-1.66-1.09l.53-.3c-.12-.18-.36-.55-.47-.74s.06-.29.23-.38c.35-.2.7-.4.64-.86a18.41,18.41,0,0,0-1.33-2.48c-.83-.47-1.68-.91-2.53-1.32a2.53,2.53,0,0,1-.72.32l-.84-.3c-.54.26-1,.71-1.35.88C924,90.27,922,90.42,921,91.57c-.25.39.72,1.74.64,2.8-.06.29-.72.35-1.27.6.66.74.23,1.2-.44,1.25l.24.42-.73.34c1.16,2.37,2.15,5.39,4.44,6.62a9,9,0,0,0,2,.8c.31.11.55.79.69,1,.67-.1,1-.6,1.57-.91.9,1.66,3.23,5,4.49,3.34,1.05,1,1.88.47,3.11,1.33,1.64,1.12,3.71,2.56,5.78,3.94,1.21.65,2.24,1.45,3.35,2.16l1.22.75c4.23,2.55,7.9,4.86,11.85,6.73a30.77,30.77,0,0,0,13.3,3.13,71.9,71.9,0,0,0,14.91-1.54c1.19-.32,2.38-.56,3.53-.9l3.38-1.13c1.09-.4,2.13-.91,3.18-1.33.51-.24,1-.42,1.54-.68l1.44-.77c1-.51,1.92-1,2.8-1.48l2.5-1.58a48.22,48.22,0,0,0,4.28-3l1.78-1.32,1.4-1.22c.85-.75,1.52-1.35,2-1.8Z"/></g><g class="cls-9"><path class="cls-10" d="M995,69.41a4.25,4.25,0,0,0-1.53,1c-.53.41-1,.94-1.52,1.41a9.48,9.48,0,0,1-3,2.14,3.91,3.91,0,0,1-1.43.53c-.33,0,.32-.16,1.43-.53a9.62,9.62,0,0,0,1.43-1,9.4,9.4,0,0,1-3,0,5.52,5.52,0,0,1-.93.57,7.73,7.73,0,0,1-4.38,1.18,4.07,4.07,0,0,1-2.1-.42,9,9,0,0,0,5.85-1.37.74.74,0,0,1-.21,0,9.28,9.28,0,0,1-3.18.66,1,1,0,0,1-.53,0,3.11,3.11,0,0,0,.53,0,5.17,5.17,0,0,0,1.18-.66c.27-.1.72,0,1-.12s.63.07,1,.12l.47-.21a.46.46,0,0,1,.07-.16h0a12.93,12.93,0,0,0-3.15-.81c-1.12-.23-1.87-.61-2-.43a2.94,2.94,0,0,0-.42.86c-.16.34-.37.71-.6.77s-.24-.32-.39,0a1.37,1.37,0,0,1-.2.46c-.35,0-.46-.73-.85-.24-.12.08,0-.67.09-1.34s.32-1.28.19-1c-.94,1.9-.27.51-.44.21,0,0-.54.66-.57.52,0-.62-.42,0-.86-.06-.43.1-.48-.13-.54-.32s-.17-.27-.85,0a6.88,6.88,0,0,1-1.42-.08c-.31-.69-1.49-.58-.5-1.85-.72,0-.9-.38-.87-.83s.17-.94,0-1.24-.09-.61.18-.92a10.78,10.78,0,0,1,1.13-1c.12-.17,0-.27.27-.39s-.56-.22-.43-.39l.58,0,.17-.2a.94.94,0,0,1,.44,0,4.08,4.08,0,0,0,1.05-.11,6,6,0,0,0,.75-.46c-.29-.14-.62-.29-1-.47a6.66,6.66,0,0,1-.74-.1l-.42-.19-1.58-.22c-1.64-.16-3.19-.71-4.68-.84-.43,0-.63.55-1.42.78a5.67,5.67,0,0,1-1.34-.26c0,.4-.66.4-1.17.19l-.12.2-.76-.15a14.61,14.61,0,0,0-1.26,1.82,1.68,1.68,0,0,0,0,1.85,3.43,3.43,0,0,0,1,.79c.17.11-.11.46-.14.58a8,8,0,0,0,1.74-.13,3.31,3.31,0,0,0-.35,1.66c.09.51.48.82,1.45.45.11.6,1,.37,1.37.87s1,1.47,1.58,2.24a10.94,10.94,0,0,1,1,1.21l.35.42a25.46,25.46,0,0,0,3.86,3.84,6.17,6.17,0,0,0,5.54,1c2-.71,3.71-1.4,5.34-2.08a49.07,49.07,0,0,0,4.61-2.19,18.11,18.11,0,0,0,5.81-4.66Z"/></g><g class="cls-9"><path class="cls-10" d="M1039.61,88.79a4.53,4.53,0,0,0-2.15-1.86,8.55,8.55,0,0,1-2.17-1.33,2.36,2.36,0,0,1-.81-.74c-.14-.23.22.12.81.74.29.18.63.37,1,.59a15,15,0,0,1-1-2.38,7.77,7.77,0,0,1-.71-.35,9.9,9.9,0,0,1-2.83-1.81c-.29-.32-1-.75-1.17-1.25a19.85,19.85,0,0,0,4.12,2.2l-.09-.16c-.36-.22-.71-.49-1.05-.74a12.49,12.49,0,0,1-1-.8.88.88,0,0,1-.32-.29l.32.29a4.43,4.43,0,0,0,1.06.18c.21.12.37.48.59.6s.25.48.37.76l.33.21a.21.21,0,0,1,.12-.05v0a6.87,6.87,0,0,0-1-2.78c-.51-.92-1-1.62-1.24-1.59s-1.24,1-1.68.94c-.15,0-.08-.38-.32-.18a1.47,1.47,0,0,1-.34.36c-.3-.06-.17-.8-.66-.44-.27.11,1.11-2.74.78-2.26-1.28,1.7-.35.46-.51.12,0,0-.62.58-.63.45.09-.6-.4-.06-.81-.07-.83.23,0-.88-1.24-.14a5.06,5.06,0,0,1-.68.15c-.3.06-.58.09-.58.09-.27-.54-1.3,0-.53-1.4-1.29.48-.64-1-1.13-1.3s.16-1.1.67-2c0-.19-.08-.21.12-.43s-.58.09-.53-.09l.5-.3.07-.23c0-.06.19-.16.35-.26a4.21,4.21,0,0,0,.88-.6,4.18,4.18,0,0,0,.4-.79c-.32,0-.68,0-1.08.1-.23.12-.47.25-.67.33l-.45.09-1.41.74c-1.43.8-3,1.35-4.25,2.12-.36.23-.29.63-.87,1.17A9.09,9.09,0,0,1,1017,75c.13.21-.4.54-.92.72l0,.15-.7.34c-.3.93-1,2.38,0,2.55a3.29,3.29,0,0,0,1,0c.16,0,0,.32,0,.4a12.3,12.3,0,0,0,1.49-.9c-.19.71-.31,2.19,1.28.85.15.36.94-.2,1.27,0a16,16,0,0,1,1.44,1,2.52,2.52,0,0,1,.78.62l.26.23a7.18,7.18,0,0,1,1.24,1.22c.37.41.72.84,1.09,1.24a5.26,5.26,0,0,0,1.32,1,3.82,3.82,0,0,0,1.81.28c2.84-.28,4.77.78,6.67,2a37,37,0,0,0,4.28,2.8Z"/></g><g class="cls-9"><path class="cls-10" d="M1065.72,108.89c-1.18-.68-3.31-.63-5.54-.64l-3.26,0a22.23,22.23,0,0,1-2.67-.22,10,10,0,0,1-2.5-.35c-.51-.18.67.07,2.5.35.82,0,1.78.07,2.92.08-1.5-.61-2.9-1.24-3.88-1.76-.69,0-1.39,0-2.1,0l-2.31-.06-2.28-.16a26.5,26.5,0,0,1-4.51-.65,24.78,24.78,0,0,1-4.46-1.07,69,69,0,0,0,13.25,1.09l-.37-.11-1.75-.12L1047,105c-1.16-.13-2.32-.27-3.46-.5a6.33,6.33,0,0,1-1.19-.21l1.19.21a11.16,11.16,0,0,0,1.53,0c.52-.05,1.05-.1,1.61-.12s1.47.35,2.17.39a6.19,6.19,0,0,1,1.65.56l1,.07a1.17,1.17,0,0,1,.32-.09v0c-.5-.77-2.93-1.48-5.33-2.25-1.2-.32-2.4-.69-3.38-.94a8.58,8.58,0,0,0-2.12-.33c-1.11.07-2.27,1.2-3.55,1.2-.43,0-.73-.42-1.09-.18-.06.18-.25.3-.43.42-.86,0-1.56-.9-2.31-.44-.51.14-1.08-3.21-1.28-2.66-.8,2-.22.54-1.2.12-.11-.07-.72.68-1,.54-.7-.75-1.13-.12-2.16-.16-1.63.25-1.54-1.12-3.21-.28-.19.08-2.48.22-2.48.22-1.46-.77-2.83-.2-3.44-2a2.52,2.52,0,0,1-2.41-.68,9.65,9.65,0,0,0-2.11-1.48c-1.5-.54-1.6-1.75-2.3-3.23-.25-.33-.55-.39-.59-.76s-.93.06-1.18-.26l.38-.45-.33-.42c-.08-.11.05-.26.18-.4.26-.3.52-.59.48-1a9.45,9.45,0,0,0-.91-1.51,18.48,18.48,0,0,0-1.86-.08,3,3,0,0,1-.54.53l-.64.09c-.42.42-.76,1-1,1.23-1,1.34-2.47,2.23-3.21,3.53-.2.4.55,1.08.48,2-.05.26-.55.56-1,1,.5.34.18.88-.33,1.17l.18.25-.56.55c.45.74.85,1.66,1.35,2.43a2.94,2.94,0,0,0,2,1.41,4.83,4.83,0,0,0,1.5,0c.23,0,.41.47.51.59a6.27,6.27,0,0,0,1.15-1.35c.69,1,2.41,3.1,3.28,1.21.75.52,1.36-.29,2.23,0,1.19.36,2.62,1,4.08,1.42a15.66,15.66,0,0,1,2.3.82c.28.11.56.2.83.28,1.45.43,2.75,1,4,1.47s2.51,1,3.76,1.38a30.59,30.59,0,0,0,3.86.93,18.4,18.4,0,0,0,4.27,0,88.41,88.41,0,0,1,17.24,0c5.16.41,9.44.68,11,.57Z"/></g><g class="cls-9"><path class="cls-10" d="M955.18,71.79c-.93,1.78.72,4.27,1,5.75a5.13,5.13,0,0,1,.33,1.26c0,.29-.19-.27-.33-1.26-.15-.37-.34-.8-.56-1.3-.19,1-.37,2-.56,2.75.18.29.37.58.54.89.78,1.35,1.73,2.5,2.43,3.94.23.54,1,1.44,1.13,2.1-1.44-1.75-2.81-3.55-4.13-5.38a1.79,1.79,0,0,1,0,.23c.56,1.08,1.14,2.15,1.75,3.21a2.08,2.08,0,0,1,.31.55l-.31-.55c-.35-.4-.83-.66-1.24-1.07-.2-.3-.26-.79-.45-1.09a2.55,2.55,0,0,1-.06-1l-.25-.48a.53.53,0,0,1-.17-.08v0c-.44.66-.35,2.21,0,3.63a6,6,0,0,0,1.28,2.91c.56.31,1.85-.16,2.41.22.19.12.08.49.41.41a1.28,1.28,0,0,1,.48-.21c.38.25.18,1.08.83.91.33,0-1.38,2.7-.94,2.32,1.62-1.39.44-.38.72.16,0,.08.78-.39.81-.22,0,.71.57.27,1.13.46,1,0,.24,1.16,1.67.63a15,15,0,0,1,1.55,0c.51.71,1.6.24,1.12,1.81,1.43-.5,1.21,1.33,2,1.67s.38,1.36.38,2.53c.08.24.26.26.18.56s.65-.16.73.08l-.4.43.1.32c0,.08-.1.22-.23.36a2.3,2.3,0,0,0-.61.88,3.6,3.6,0,0,0,.26,1.16,9.81,9.81,0,0,0,1.32-.25,7,7,0,0,1,.5-.55l.47-.19c.39-.44.75-1,1-1.25,1-1.32,2.2-2.39,3-3.65.23-.37-.07-.77.23-1.52a8.18,8.18,0,0,1,.89-1c-.22-.17.15-.68.55-1l0-.15.51-.58c-.11-1,.16-2.54-.79-2.37a3.76,3.76,0,0,0-.93.33c-.15.06-.07-.31-.09-.38a13.19,13.19,0,0,0-1.19,1.27c0-.76-.2-2.2-1.49-.58-.25-.32-.92.37-1.31.17a9.86,9.86,0,0,1-1.71-1,3,3,0,0,1-.91-.66l-.31-.25c-2.2-1.71-2.52-4.26-5.51-5.07a8.44,8.44,0,0,1-5.56-5.66A32.9,32.9,0,0,1,956,71.66Z"/></g><line class="cls-11" x1="948.62" y1="113.04" x2="1004.62" y2="74.04"/><line class="cls-11" x1="948.55" y1="74.14" x2="1004.69" y2="112.94"/></g></svg>