<svg id="artboard_2" data-name="artboard 2" xmlns="http://www.w3.org/2000/svg" viewBox="0 0 383.14 259.67"><defs><style>.cls-1{fill:#ff7bac;}.cls-2{font-size:48px;fill:#3caff5;font-family:Magneto-Bold, Magneto;font-weight:700;}</style></defs><title>spillknapp</title><path class="cls-1" d="M294.32,108.87c12,17.6,32.2,23.81,49.29,36.24,7.77,6.21,9.32,17.09,3.11,24.86a9.59,9.59,0,0,1-10.88,1.55c-14-4.66-26.41-10.87-41.94-14-12.43-3.11-21.75,4.66-22.57,17.37a96.18,96.18,0,0,1-.78,11.51c-.64,3.74-1.9,7.24-4.62,10-17.08,17.08-24.85-14-40.39-17.09-3.88,1.16-6.11,3.88-7.53,7.47-4.26,10.78-1.21,29.41-13.44,37.53a30.23,30.23,0,0,1-8.54,6.26c-7.77,4.66-17.09-1.55-24.4-7A69.19,69.19,0,0,1,163,211.72c-7.77-13-13.6-28.55-22.92-38.65-12.43,26.41,1.56,55.93-14,82.34-4.66,9.32-17.09,1.55-21.75-6.22-10.87-23.3,3.11-54.37-12.43-73C81.07,163.75,62.43,187.05,49,195.6a104,104,0,0,1-12.83,6.94A35.8,35.8,0,0,1,22,205.7c-3.11,0-4.66-3.11-4.66-6.22a64.76,64.76,0,0,1,5.05-11,72.69,72.69,0,0,1,6.78-9.77c2.15-2.52,3.7-5.63,6.81-8.73a118.28,118.28,0,0,1,11.13-7.44c3.43-2.8,8.24-5.24,13.43-7.88,11.17-8,28.26-11.09,26.7-25.07,0-12.43-15.53-15.54-25.08-23.24-3-1.53-6-3-9.19-4.29C40.39,96.7,26.5,92.67,14.27,87.63,6.5,83-4.37,73.65,1.84,64.33c23.3-23.3,49.84-.22,73.32,9a45.48,45.48,0,0,0,13.68,3.4c5.43.25,9.19-.83,11.69-2.91s3.76-5.18,4.19-8.95c1.72-15.07-9.67-41-6.56-56.5C99.71.64,110.59-2.47,118.35,2.19c15.54,10.87,21.75,28,35.75,40.44a13.89,13.89,0,0,0,12.65,2.62A14.44,14.44,0,0,0,176.21,36a104.54,104.54,0,0,1,6.56-9.77c2.38-2.86,5.1-5,8.6-5.39,15.14-1.16,14.56,16,18.61,29.76,1.35,4.58,3.21,8.78,6.34,11.78,4.59,3.75,10,0,15.63-5.62s11.45-13.41,16.87-17.3c2.35-2.73,4.56-5.62,6.73-8.54,8.66-11.69,16.65-23.84,30.3-27.45A18,18,0,0,1,297,6.85c5.25,4.08,6.34,9.69,6,16C298.56,41,297,69,323.41,67.44c17.09-1.56,35.73-9.32,52.82-3.11,6.22,3.11,9.32,12.43,4.66,17.09-18.64,23.3-51.26,18.64-77.33,24.73A71.3,71.3,0,0,0,294.32,108.87Z"/><text class="cls-2" transform="translate(126.08 133.99)">Spill</text></svg>