<svg xmlns="http://www.w3.org/2000/svg" xmlns:xlink="http://www.w3.org/1999/xlink" viewBox="0 0 1231.04 570.92"><defs><style>.cls-1,.cls-2{opacity:0.21;}.cls-1{fill:url(#Orchid);}.cls-2{fill:url(#Orchid-2);}.cls-3{font-size:40px;}.cls-12,.cls-3{font-family:Back-to-the-future-2002-Regular, Back to the future 2002;}.cls-4{font-size:71px;font-family:MyriadPro-Bold, MyriadPro Bold;font-weight:700;}.cls-5,.cls-6{font-size:74px;}.cls-5{font-family:Stereofidelic, Stereofidelic;}.cls-7{fill:#55b3f6;}.cls-8{opacity:0.4;fill:url(#radial-gradient);}.cls-9{fill:#52a6dc;}.cls-10{fill:#ececec;}.cls-11{fill:#8ccff9;}.cls-12{font-size:110px;}</style><linearGradient id="Orchid" x1="2.99" y1="287.94" x2="976.99" y2="287.94" gradientUnits="userSpaceOnUse"><stop offset="0" stop-color="#ff7bac"/><stop offset="0.22" stop-color="#ff7bac" stop-opacity="0.76"/><stop offset="0.6" stop-color="#ff7bac" stop-opacity="0.36"/><stop offset="0.87" stop-color="#ff7bac" stop-opacity="0.1"/><stop offset="1" stop-color="#ff7bac" stop-opacity="0"/></linearGradient><linearGradient id="Orchid-2" x1="7.99" y1="283.94" x2="981.99" y2="283.94" xlink:href="#Orchid"/><radialGradient id="radial-gradient" cx="551.1" cy="2138.13" r="97.67" gradientTransform="matrix(0.73, 0.24, -0.22, 0.79, 940, -1491)" gradientUnits="userSpaceOnUse"><stop offset="0" stop-color="#fff"/><stop offset="0.06" stop-color="#d5e6f4"/><stop offset="0.13" stop-color="#b3d2eb"/><stop offset="0.19" stop-color="#9ac4e4"/><stop offset="0.25" stop-color="#8bbbe0"/><stop offset="0.29" stop-color="#86b8df"/><stop offset="0.65" stop-color="#556cac"/><stop offset="0.77" stop-color="#8666a5"/><stop offset="0.99" stop-color="#e65a96"/></radialGradient></defs><title>Taperscreen</title><g id="Layer_9" data-name="Layer 9"><path id="underlag_gradient" data-name="underlag gradient" class="cls-1" d="M977,572.2H3V4.2H345.84c11.69,0,23.5-1.19,35.4,0H977Z"/><path id="underlag_gradient-2" data-name="underlag gradient" class="cls-2" d="M982,568.2H8V.2H350.84c11.69,0,23.5-1.19,35.4,0H982Z"/><text class="cls-3" transform="translate(182.02 414.6)">Er<tspan class="cls-4" x="66.8" y="0">&apos;</tspan><tspan x="80.14" y="0">u </tspan><tspan class="cls-5" x="125.89" y="0" xml:space="preserve">             </tspan><tspan class="cls-6" x="287.5" y="0" xml:space="preserve">    </tspan><tspan x="374.22" y="0">eller?</tspan></text><path class="cls-7" d="M206.9,310.33l-3.67.93a1.08,1.08,0,0,0,.11.18Z"/><path class="cls-7" d="M209.92,307.16l-1.16.28a.83.83,0,0,1,.26.1Z"/><path class="cls-7" d="M203.34,311.44c.46.62,2.15.93.47,2.1l-8.09,2.07c-1.93.9.19.76.29,1.14-2,.52-4,1-4,1.22-1.19.84,1.08.6,5-.28C205.18,313.29,227.26,307,203.34,311.44Z"/><path class="cls-7" d="M219.16,305.9l-10.7,2.62c-1,.7-2.39,1.54-1.2,1.69A97,97,0,0,0,219.16,305.9Z"/><path class="cls-7" d="M525.9,330c0-.12.2-.18,2.11,0H525.9c0,.11.1.28-.86.35,7.39-.17,16-.63,24.36-1.29,1.07-.27,2.1-.57,3-.86-20.62,1.82-41.34,1.26-58.32.49,6,.62,11,.91,16.05,1.08S520.13,330,525.9,330Z"/><path class="cls-7" d="M553.94,326.9l2.09-.19C554.13,326.7,553.94,326.78,553.94,326.9Z"/><path class="cls-7" d="M713.33,306.54A105.24,105.24,0,0,0,703,303.49c-1.59-.39-3.07-.77-4.48-1l-2-.37c-.17,0-1-.24-1.67-.39l-2-.5,2.58.74,1,.27.6.16,2.45.64,5.06,1.5c3.48,1,7,2.25,10.66,3.44l1.83.6c-.36.22-.84.43-1.25.64-.87.41-1.7.89-2.56,1.25-1.74.71-3.42,1.47-5.12,2,2.18-.5,4.27-1.28,6.4-2,1-.4,2.06-.84,3.1-1.26l.78-.32.39-.16.19-.08,0,0,0,0-.1,0-1.61-.61Z"/><path class="cls-7" d="M638.79,290c7.5,1.87,14.41,3.23,20.87,4.77,3.23.72,6.38,1.39,9.47,2l9,2c-3-.78-6-1.6-9-2.35l-9-2.11-4.49-1.05c-1.49-.36-3-.7-4.49-1l-9-1.86Z"/><path class="cls-7" d="M655.8,292.52c3.44.86,6.75,1.65,10,2.37l4.76,1.06,4.62,1.11c6.08,1.45,11.94,2.65,17.69,4.15C680,297.54,667.26,294.66,655.8,292.52Z"/><path class="cls-7" d="M540.6,315.37c-2.25.17-4.3.22-6.1.44l-4.84.47-2,.19-1.72.23-2.72.34c-1.32.41-3.08.83-5.38,1.64l1.54-.23a180.58,180.58,0,0,1,27.86-2c2-.05,3.88-.15,5.71-.17s3.57-.05,5.15-.11c-2.92-.21-5.87-.48-8.78-.56S543.48,315.32,540.6,315.37Z"/><path class="cls-7" d="M523.22,317c5.65-1.7,2.69-1.36-.22-.77S517.3,317.7,523.22,317Z"/><path class="cls-7" d="M583.31,307.25l1.44.19c1.38.15,2.81.29,4.19.46C587,307.65,585.2,307.47,583.31,307.25Z"/><path class="cls-7" d="M700.41,323.25l-2,.28c-.67.08-1.33.15-2,.19l-3.3.29-3.16.28c-1,.09-2.11.1-3.16.16l-6.3.28-6.26,0h6.43l6.41-.26c2.13,0,4.25-.26,6.35-.45l3.34-.3c1.3-.1,2.62-.31,3.89-.51l7.54-1.19.92-.15.86-.2,1.71-.42,3.35-.82,3.26-.8c1.06-.27,2-.63,3-.94l5.6-1.84c-2.29.67-4.88,1.23-7.14,1.88-.51.2-1,.42-1.62.62l-2,.56-4.53,1.25-2.52.66-2.82.48C704.41,322.66,702.42,323,700.41,323.25Z"/><path class="cls-7" d="M517.83,307.07a208.44,208.44,0,0,1,33.85-1.88c11.2.22,22.24,1.1,33.07,2.25,11,1.5,21.73,3.34,32.35,5s21.13,3.12,31.47,4.11A243.06,243.06,0,0,0,679,317.75l1.86,0,1.84-.1,3.67-.22c2.44-.09,4.84-.38,7.23-.64l1.73-.19,1.34-.17,2.53-.45c1.65-.31,3.25-.55,4.74-1a92.39,92.39,0,0,0,9.41-2.83l2.38-.92,1.2-.46,1.17-.56,2.35-1.1.59-.27s.13-.05.11-.07l-.19-.07-.38-.13L719,308l-7.28-2.48c-2.39-.82-4.78-1.5-7.09-2.22s-4.55-1.39-6.74-1.94l-1.8-.48-2.9-.82-5.75-1.61c-3.83-1-7.62-1.88-11.33-2.77l-5.48-1.29-5.37-1.07c-3.52-.69-6.92-1.33-10.17-1.91s-6.38-.93-9.3-1.31l5.09,1.21c1.67.38,3.3.76,4.89,1.17-2.38-.48-4.73-.8-7-1.15s-4.46-.66-6.58-.94l-5-1-5-.91-10.06-1.81c-3.34-.62-6.71-1.06-10.07-1.6S605.35,284,602,283.55c-13.46-1.79-26.94-3.41-40.52-4.47-27.14-2.26-54.56-3.19-82.54-2.73-4.15.07-7.78.28-11.4.5s-7.25.56-11.39.7l-6.27.26-6.23.37-12.36.78s.08.08.31.1c-17,1.29-33.92,3-50.9,5.15s-34.05,4.87-51.5,8c-16.36,2.91-32.78,5.65-49.08,8.94-6.12,1.22-6.27.5-10.39,1.15-16.5,2.43-28.88,4.46-47.23,8.43,0,0-.09-.38-.13-.57-2.79.75-5.3,1.36-7.37,1.8,8.18-4.32,30.34-10.29,6.36-6.18h0l3.56-1.07.4-.09h0a95.81,95.81,0,0,0,11.95-4.18l-10.73,2.51c.62-.43,1-.8.56-1l.91-.37,2.92-.68a5.26,5.26,0,0,0,1.06-.72c9.16-3.07,23.91-6.69,20.88-6.88-2.28.11-9.09,1.91-16.81,4-.49,0-1,.1-1.61.17,10.18-2.58-.31-1.33,5.78-2.95,8.21-1.81,16.35-3.89,24.59-5.57,33.5-7,61.91-12.14,95.18-17.29,1.47-.24,2.92-.43,4.39-.64l12-1.63c3.95-.55,7.89-.94,11.81-1.39,7.84-.93,15.67-1.56,23.64-2.22l-3.13.67c6.4-.58,12.83-.91,19.24-1.43,3.21-.26,6.43-.44,9.64-.66l9.64-.71c15.76-1.07,31.55-2,47.63-2.15l6-.1,6.07,0,12.25.09c8.21.29,16.52.44,25,1,8.84.46,17.58,1.26,26.29,2,8.7.93,17.38,1.7,26,2.89,8.68,1,17.32,2.41,26.06,3.7,8.69,1.54,17.47,3,26.3,4.83-14.47-2.84-29-4.95-43.95-7.19l-10-1.41c-3.32-.45-6.61-.94-9.87-1.26,3.37.38,6.7.9,10,1.35l9.88,1.32c6.43,1.06,12.9,2.13,19.29,3.26l9.5,1.8c3.14.6,6.26,1.13,9.3,1.79l9,1.81,4.39.84,4.28.89q4.22.87,8.24,1.61c2.67.49,5.27.91,7.75,1.39a39.13,39.13,0,0,0,4,1.5c3.57,1,7.15,2,10.69,3l11.21,3.47c2.58.77,5.09,1.58,7.58,2.39l7.27,2.47c4.81,1.63,9.6,3.21,14.43,4.75.17,0,2.52.75,4.55,1.41s3.79,1.24,2.67.61l19.35,7.14-.76.8-.39.4-.2.2-.1.1,0,.05-.14.06-4.49,1.84-4.49,1.85-2.22.91-2.09.81-8.25,3.25-8.08,3-1.27.47-.64.23-.72.2-2.87.82-5.74,1.69-1.44.44a10.23,10.23,0,0,1-1.5.4l-3.24.64-6.61,1.35c-1.17.19-2.33.4-3.53.58s-2.41.26-3.46.36l-4.43.43c-.74.06-1.48.15-2.21.2l-2.21.11-4.42.22c-5.89.23-11.75.22-17.59,0-11.69-.39-23.26-1.5-34.78-2.91s-23-3.15-34.49-4.74-23-2.92-34.63-3.65c-2.9-.21-5.88-.32-8.93-.51s-6.13-.19-9.22-.24c-6.14,0-12.28.12-17.91.64A188.16,188.16,0,0,1,551,317.58c8.82.16,17.84.76,27,1.68,8.83,1.2,17.49,2.64,25.78,3.89s16.32,2.33,23.58,2.93l10.16.91c-10.25-1.16-20.34-2.58-30.29-4s-19.62-2.77-29.23-3.73a293.69,293.69,0,0,0-31.39-2.83l.62,0c8.12-.06,16.41.43,24.78,1.15,15.71,1.89,30.84,4.63,44.29,6.09,1.67.18,3.33.36,4.93.49,3.36.32,6.71.69,10.09,1-12.54-1.53-25-3.45-37-5.08-7.48-.95-14.94-1.89-22.31-2.49-2.31-.31-4.62-.56-6.94-.78s-4.66-.51-7-.65l1.47-.06a57.65,57.65,0,0,0,8.64-.62c2.67-.4,4.09-.93,1-1.59-7.9-.79-16.58-1.37-25.13-1.46a200.15,200.15,0,0,0-24.23,1.4c-1.82.24-3.57.56-5.25.82s-3.29.49-4.77.86l-4.21.93-1.89.41-1.69.49L497,318.75c-1.19.3-1.79.59-1.81.54-1.11-.14,10.78-4.42,23.51-6.28,1.58-.25,3.18-.4,4.75-.6s3.11-.41,4.61-.53c3-.2,5.79-.44,8.15-.57,4.74-.14,7.74-.26,7.23-.3-3-.06-6.07-.2-9.08-.15,2.86-.27,5.68-.37,8.28-.58,3.08-.09,6.69.09,10,.17s6.45.34,8.54.3a199.91,199.91,0,0,1,23.08,1.68c8,1,16.29,2.22,24.64,3.22,10.46,1.14,23,2.42,35.65,3.15,0-.35,6.29.51,4.24-.11,5.89.65,12.25,1.21,17.78,1.33a60,60,0,0,0,12.75-.64l.86,0c.83,0,2-.11,3.26-.22l3.6-.08c1.18,0,2.34-.06,3.47-.17l3.35-.28,3.05-.28a94.93,94.93,0,0,0,10.38-1.88l2.33-.57,1.13-.29,1.1-.35,4.22-1.41c1.36-.49,2.65-1.1,4-1.64.65-.28,1.31-.53,1.94-.84l1.88-1,2.55-1.12.33-.14L727,309l-.18-.07-.75-.27-1.5-.54c-2.53-.91-5.08-1.85-7.62-2.81,2.1.79,4.64,1.87,7.16,2.8l1.48.53c.4.17,1.36.33.67.5l-2.3,1.19c-2.54,1.22-5.2,2-7.84,3-1.34.42-2.7.79-4.07,1.2l-2.08.6-2.12.48c-1.42.31-2.86.66-4.33,1l-4.5.74c-.76.11-1.52.27-2.3.35l-2.54.27c-1.87.18-3.73.42-5.59.55-1.22.15-3.19.39-5,.58-1.09,0-2.17.06-3.26,0l-.86.21c-14.41.57-30.76-.86-43-2-11.58-1.26-23.47-3.2-35.38-5.17s-23.93-3.8-35.74-4.95c11.79.76,23.39,2.08,34.76,3.53-14.21-2-27.68-3.49-40.78-4.05l-6-.41c-2.1-.1-4.2-.15-6.29-.23-1,0-2.1-.08-3.15-.09H540.6c3.92,0,7.8.32,11.65.47-3.91,0-7.79-.11-11.65.09-1.92.07-3.84.1-5.75.22l-5.69.45a155.94,155.94,0,0,0-29.43,5,115.4,115.4,0,0,0-27.56,11.56l-.68-3.92a339.62,339.62,0,0,0,66.64,4.65c-.81.26-1.76.53-2.81.8-20.44.7-40.84-1-57.55-2.61,5.84.94,10.83,1.46,15.76,1.92s9.82.74,15.51,1.07c0,.11.08.27-.87.3,7.3.22,15.83.22,24.11,0-2.64.57-5.62,1.06-8.6,1.55-4.22.34-10.54.16-16.86-.05a300.64,300.64,0,0,1-36-4.09l-4.23-.73,3.75-2,4.86-2.6,2.43-1.3c.82-.42,1.68-.76,2.51-1.13l5.05-2.22c1.7-.69,3.45-1.26,5.18-1.89,3.43-1.35,7-2.19,10.57-3.24,1.79-.49,3.61-.82,5.42-1.24s3.63-.85,5.48-1.1a191.54,191.54,0,0,1,36-1.92c12,.4,23.8,1.63,35.44,3.19C560.14,304.66,538.44,303.87,517.83,307.07ZM265,296.71l6.38-1.63-1,.07A39.51,39.51,0,0,0,265,296.71Zm48-9.1c-14.19,2.17-32.69,6.06-50.48,10.23-.09.07-.14.13-.13.18C277.43,295,295.83,290.91,313,287.61Zm57.17-4.48-.35,0a.35.35,0,0,1,0,.08Zm253-2.81c-16.62-2-37.27-5-58.08-6.56-6.23-.55-12.51-.39-20.83-.88-5.21-.26-9.38-.4-13.29-.39s-7.56,0-11.73-.13l6.24.67c-7.28-.48-13-.29-18.74-.21s-11.45.3-18.73.07c0,.19-2.07.58-4.16.58-5.19.19-10.4.24-15.34.3s-9.62.32-13.77.65c-5.2.25-10.39.65-15.32,1l-7.16.54c-2.3.22-4.5.46-6.57.71s-6.18,1-10.32,1.55l-15.14,1.56.63.1c4.12-.37,8.29-.77,12.45-1.28,6.21-.71,12.93-1.38,19.67-2s13.47-1.13,19.69-1.46c31.16-1.67,60.31-2.32,89.42-1.18,3.12.11,6.25.17,9.38.23s6.24.25,9.36.42c18.76.84,41.47,4,54,4.93C616.93,279.66,621.06,280.27,623.18,280.32Zm24.7-3.67c-22-4-46.39-7.56-67.25-10.1l-7.6-.81c-2.91-.32-6.16-.49-9.55-.74s-6.93-.47-10.44-.65-7-.23-10.31-.3c-6.58-.2-12.39,0-16,.25s-5.09.72-3,1.4a95.31,95.31,0,0,1,12-.7c5.2,0,11.48.24,18.38.58l10.73.8,5.62.45,5.7.6,11.56,1.27,11.45,1.56,5.59.77,5.43.87,10.25,1.64c6.51,1.09,12.27,2.19,16.92,2.9C646.54,278,651.22,278.56,647.88,276.65Zm11.55,52.21c9.05.34,17.85.5,28.28.05A236.08,236.08,0,0,1,659.43,328.86Zm72-22.91,7.53,2.52,1.93.89.46.23.23.11c.08,0,0,0-.06.06l-.13.06-1.09.49-4.45,2c-.76.33-1.52.68-2.28,1l-2.32.86-4.7,1.73c-1.57.6-3.23,1-4.86,1.54s-3.27,1-5,1.49l-5.3,1.22-2.68.62c-.88.23-1.86.32-2.8.48l-5.7.89c-.95.14-1.91.31-2.89.4l-2.69.25-4.92.47-4.91.26c-1.64.06-3.27.2-4.9.2l-4.86.05c-3.24.09-6.44-.07-9.62-.11-21.31-.61-44.09-5.54-62.91-7.27l-.09.58,2.09.15c7.25,1.32,13.07,2.61,19.19,3.72l-1.08-.12,1.85.26c4.08.75,8.35,1.37,13.3,1.91l6.92.6A261.59,261.59,0,0,0,684.73,325l5-.26,4.92-.48,2.78-.28c1.05-.1,2.08-.28,3.1-.45l6-1c1-.17,2-.32,2.93-.51l2.72-.69,5.31-1.36,1.29-.34c.42-.12.81-.26,1.21-.4l2.35-.8,4.58-1.56c1.83-.65,3.58-1.38,5.29-2s3.36-1.28,5-2.09l4.78-2.22,1.16-.54.29-.13.13-.07-.11-.06-.42-.25c-.57-.33-1.16-.66-1.77-1-8.69-2.83-16.7-5.56-24.73-7.94l7.29,2.6C726.42,304.18,729,305.16,731.38,306Z"/><path class="cls-7" d="M556.46,306.77a228.51,228.51,0,0,0-27.3.44c-1.76.11-3.51.35-5.26.57l-5.22.68-5.16,1-2.57.48c-.86.17-1.7.4-2.54.61a125.88,125.88,0,0,0-36,13.76l-.85-4.87a307.28,307.28,0,0,0,68.86,4.2c1-.63,1.12-1.22-.19-1.76A348.39,348.39,0,0,1,472,317.2l1.57,9,5.07-2.72c.85-.44,1.67-1,2.55-1.33l2.64-1.16,2.64-1.16a25.79,25.79,0,0,1,2.68-1.07l5.45-1.92c.9-.35,1.85-.57,2.78-.83l2.8-.76,2.79-.77c.94-.23,1.9-.39,2.85-.59,1.9-.38,3.8-.79,5.71-1.13l5.78-.8.88-.19a148.5,148.5,0,0,1,30.19-2.1c11.37.2,23.28,1.3,33.68,2.22s20.81,2.16,31.23,3.52,20.86,2.64,31.35,3.4C614.47,315.21,586.24,308.9,556.46,306.77Z"/><path class="cls-7" d="M678.17,298.79c3.91,1,7.86,2,11.75,3.2l5.8,1.71,2,.52,5.89,1.62c2.08.59,4.27,1.3,6.64,2l.93.29.47.15.12,0s0,0-.06,0l-.14.08-1.13.64c-.39.21-.78.44-1.19.65l-1.28.57-1.35.6-1.45.51-1.53.53c-.52.17-1.07.3-1.63.46l1.8-.37,1.76-.47,1.76-.46,1.71-.58,1.71-.57c.57-.21,1.12-.46,1.68-.69l1.67-.69.2-.08s.09,0,.09-.05l-.11,0-.44-.16-.89-.33-6.18-2.3c-1.79-.57-3.57-1.07-5.24-1.5s-3.22-.78-4.64-1l-.53-.09-.25,0a2.52,2.52,0,0,1-.37-.08l-2.5-.62-5-1.24C684.92,300.21,681.55,299.56,678.17,298.79Z"/><path class="cls-7" d="M693.18,314.08l1.93-.22c.42-.06.78-.1,1.12-.17l2-.41c.66-.13,1.3-.25,1.92-.4l1.81-.48-1.94.38c-.65.12-1.31.2-2,.3l-2,.28-1.07.1-1.94.16L689,314l-4.12.16-4.13.15h-4.14a302.81,302.81,0,0,1-33.26-2.13c-18.3-1.83-36.61-5-55.28-7.33s-37.58-3.73-56.54-2.37c-4.3.22-8.56.76-12.79,1.22a213.67,213.67,0,0,1,26.37-1c8.75.2,17.43.91,26,1.8s17.09,2.15,25.5,3.44l24.89,4c8.21,1.23,16.33,2.36,24.36,3.21,2,.24,4,.38,6,.57s4,.37,6,.47l5.92.36,5.88.17,2.91.08,2.91,0c1.92,0,3.85,0,5.76-.09,3.8-.23,7.59-.32,11.29-.79l2.7-.29c.66-.09,1.24-.14,1.82-.26l3.39-.62c1.09-.18,2.13-.48,3.14-.74s2-.48,2.87-.8l1.66-.58a84.33,84.33,0,0,1-11.67,2.17l-4.17.35c-1.69.14-3.36.31-5.06.34-3.38.12-6.75.29-10.15.22a321.4,321.4,0,0,1-40.75-3c9.56,1.11,19.11,2,28.62,2.34A199.93,199.93,0,0,0,693.18,314.08Z"/><path class="cls-7" d="M565.22,307.22c-2-.19-4-.41-6-.52l-7-.25c1.41.09,2.82.22,4.21.32l4.4.18Z"/><path class="cls-7" d="M623.66,320.81l.77.14c6.61.92,13.38,1.76,20.22,2.51,9.48.75,19.43,1.31,29.63,1.32C655.78,324.59,637.74,322.27,623.66,320.81Z"/><path class="cls-7" d="M682.49,330.67l4.41-.12c1.65,0,3.3-.09,4.42-.2l4-.65c-2.07.13-4.16.31-6.24.39Z"/><path class="cls-7" d="M676.62,282.12c5.4,1.42,10.78,2.72,16.06,4.19l7.91,2.27,6.09,1.81c2,.65,4,1.27,6,1.94l23.43,8.08,23.59,8.5-1.42,1.35c-.08.21-.87.48-1.45.73l-1.83.77-7.28,3.06-6.78,2.73c-2.24.9-4.45,1.82-6.74,2.63l-6.8,2.51c-.58.2-1.08.44-1.74.61l-1.94.53-3.88,1.07L716,326l-2,.53c-.67.16-1.43.25-2.14.38l-8.73,1.47c-1.38.26-2.74.6-4.19.82-.73.14-1.39.2-2.09.3l-.52.07-.35,0-.66.11,2-.14c.84-.05,1.74-.16,2.64-.26l5.24-.8,5.24-.81,2.62-.4,1.31-.21,1.17-.31,9.32-2.46,2.3-.62,2-.73,4-1.46c5.38-1.88,10.49-4,15.57-6.05l8.12-3.39,2-.84,1-.42.48-.21.25-.18,1.94-1.44-16-5.7-7.79-2.71L731.17,298l-22.9-7.34c-1.87-.64-3.79-1.19-5.69-1.77l-4.35-1.3-7.12-2.09-14.19-3.62c-2.34-.61-4.7-1.13-7-1.64l-7-1.54c-2.34-.49-4.67-1.05-7-1.49l-7-1.33,6.71,1.35c2.26.43,4.48,1,6.74,1.5,4.49,1.05,9,2,13.62,3.15Z"/><g id="astronauthode"><ellipse class="cls-8" cx="875.95" cy="363.24" rx="38.57" ry="42.07"/><path class="cls-9" d="M889,302.32c-29.71-9.8-61.09,8.58-70.09,41.05s7.81,66.73,37.52,76.52,53.25-11.18,62.24-43.64S918.7,312.11,889,302.32ZM866.41,403.07c-18.19-6-28.16-28.1-22.27-49.38S869.57,320,887.76,326s28.16,28.1,22.27,49.38S884.6,409.07,866.41,403.07Z"/><path class="cls-10" d="M890.64,431c-1.2,4.08-16.91,9.69-37.41,2.59-20.45-6.81-36.29-23.48-35.53-26.64.52-3.38,18.24,7.44,39.38,13.3C878.21,426.35,892,426.59,890.64,431Z"/><path d="M893.29,394.27c-1.11.72-3.84-6.61-12.43-12-12.6-7.91-24.52-3.27-25.33-6.52s10.43-13.16,21-10.42C890.55,369,895.2,393,893.29,394.27Z"/><ellipse cx="870.91" cy="346.05" rx="4.89" ry="5.33"/><ellipse cx="897.18" cy="360.04" rx="4.89" ry="5.33"/><path class="cls-11" d="M864.77,342.58a20.4,20.4,0,0,1-1.39,6.79c-1.43,3.49-5.37,7.75-8.09,5.19s.43-5.13,2.7-8C860.1,343.93,864.77,342.58,864.77,342.58Z"/></g><text class="cls-12" transform="translate(236.26 243.51)">Taper!</text><path d="M333.49,417.32q-5-8.61-8.21-13.87A46.63,46.63,0,0,0,332,407a18.55,18.55,0,0,0,4.38,1.33c1.5.2,2.53,0,3.09-.5s.55-1.43-.08-2.7a11.48,11.48,0,0,0-.75-1.25,15.69,15.69,0,0,0-1.18-1.41,24.68,24.68,0,0,0-1.89-1.78l-8.42-7.24c-2-1.7-3.42-2.94-4.26-3.7-1.71-1.54-3.17-3-4.36-4.27a41.11,41.11,0,0,1-3.17-3.86,36.28,36.28,0,0,1-2.47-4,22.45,22.45,0,0,1-1.93-4.63,9.17,9.17,0,0,1-.34-3.86,3.34,3.34,0,0,1,1.74-2.53,6.6,6.6,0,0,1,3.81-.69,27.81,27.81,0,0,1,5.08.86,94.54,94.54,0,0,1,12.48,4.31q1.25,2.52,2.33,4.63c.72,1.4,2,3.87,3.93,7.4a52.38,52.38,0,0,0-6-2.92,29.4,29.4,0,0,0-4.24-1.4c-1.58-.34-2.71-.28-3.39.23s-.72,1.3-.17,2.4a9.26,9.26,0,0,0,1,1.54,21.09,21.09,0,0,0,1.73,1.88c.76.73,1.68,1.56,2.75,2.46s2.73,2.26,4.92,4l3.07,2.47c.91.75,1.93,1.63,3,2.64s2.11,2,3,2.94,1.65,1.8,2.24,2.56a22.24,22.24,0,0,1,1.59,2.26,22.47,22.47,0,0,1,1.27,2.39,18.89,18.89,0,0,1,1.73,6.08,7.61,7.61,0,0,1-.77,4.62,5.15,5.15,0,0,1-2.94,2.39,11.6,11.6,0,0,1-4.44.4A45.1,45.1,0,0,1,333.49,417.32Z"/><path d="M361.77,420.42q-2.4-6.56-4.06-10.85-2.93-7.62-8.15-20.8c-2.41-6.11-4.13-10.41-5.22-12.93l-1.29-3c3.6.82,6.08,1.35,7.43,1.63.9.19,3.21.64,6.94,1.33q3.87,12.19,7.95,24.54,3.58,10.25,7.26,20.54l-5.31-.26C366.57,420.58,364.72,420.53,361.77,420.42ZM365,397.05q1.29-4.64,3-9,1.32-3.67,2.93-7.19c.3-.8.62-1.6.94-2.39,4,.73,6.78,1.19,8.2,1.42.4.06,3,.46,7.76,1.13a90.71,90.71,0,0,0-8.72,14.34c-.43,1-.86,2-1.26,3.07,1.1,1.31,2.17,2.6,3.23,3.89q8.7,9.93,15.88,18.76h-6l-6.58.06C380.62,416,374.58,408.3,365,397.05Z"/><path d="M395.58,421.07q1-5.24,2.37-10.25a118.94,118.94,0,0,1,8.5-23.37c.22-.46.43-.93.65-1.42s.55-1.27,1-2.35q10.47,1.27,22.16,2.26,6.45.53,12.92.92,3.87.24,7.74.43c-.82,2.34-1.5,4.52-2.09,6.54-2.92-.16-6.23-.3-9.92-.46-2.15-.09-5.51-.19-10.06-.33q.58,3,1.11,5.93c1.2.07,3.68.16,7.42.22,2.73.05,5.08,0,7.07,0-.32,1.07-.63,2.14-.94,3.21-.13.51-.4,1.65-.79,3.43-1.38,0-3.22,0-5.55.05s-4.48.1-6.26.19q.51,3.34.93,6.65c3-.13,5.17-.28,6.56-.41s3.06-.32,5-.58c-.65,2.16-1.23,4.35-1.73,6.55-4.09.41-7.06.66-8.9.83-3.12.28-6.55.57-10.33.87-.38-2.28-.79-4.58-1.22-6.88-.21-1.13-.48-2.36-.79-3.69q-5.34,0-10.68-.06a75.69,75.69,0,0,0-3.51,11.48l-5.38.1ZM412,402.34q3.92.17,7.83.28-1.2-5.64-2.61-11.38l-1.58,3.29Q413.67,398.37,412,402.34Z"/><path d="M447.6,417.58c1.09-2.78,2-5.07,2.66-6.88,1.2-3.2,2.8-7.57,4.84-13.08,1.42-3.84,2.39-6.54,2.88-8.1.19-.63.38-1.25.58-1.88,3.66.18,6.18.27,7.57.31.92,0,3.29.09,7.14.14q-4.41,7.61-8.58,15.31-3.24,6.36-6.38,12.77c-1.73.23-3.46.46-5.19.67Zm18.95-16.33q4.69-3.25,9.83-6.35,4.19-2.56,8.69-5c1-.56,1.93-1.11,2.91-1.66,4.09,0,6.86,0,8.32,0,.39,0,3-.05,7.94-.2q-11.26,4.9-21,10.28c-1.24.72-2.47,1.44-3.68,2.17.22.71.41,1.4.58,2.09a31.71,31.71,0,0,1,2,9.66q-2.91.56-5.82,1.06c-1.28.23-3.44.62-6.5,1.15C469.77,411.62,469.17,407.49,466.55,401.25Z"/><path d="M485.08,411.61c2.4-2.23,4.38-4.06,5.91-5.5,2.73-2.55,6.41-6,11.11-10.41,3.27-3.05,5.55-5.19,6.79-6.43l1.49-1.48c3.66-.1,6.19-.21,7.57-.27.93,0,3.33-.17,7.19-.41q-8.4,6-16.54,12.16-6.54,5-13,10.12l-5.1,1.08Zm26.47-14.1q6.3-2.83,13.07-5.55,5.55-2.25,11.43-4.41l3.84-1.44c4.07-.3,6.84-.55,8.29-.68.4,0,3.06-.28,8-.79Q542,389,529.4,393.81q-2.45.94-4.82,1.91c-.22.49-.46,1-.71,1.44a17.35,17.35,0,0,1-4.75,6.42c-1.9.51-3.8,1-5.71,1.51-1.25.32-3.39.88-6.42,1.64A18.34,18.34,0,0,0,511.55,397.51Z"/><text></text></g></svg>