<svg xmlns="http://www.w3.org/2000/svg" viewBox="0 0 741.4 610.56"><defs><style>.cls-1{opacity:0.8;}.cls-2{fill:#d2d2d2;}</style></defs><title>stråd</title><g id="Layer_8" data-name="Layer 8"><g class="cls-1"><path class="cls-2" d="M240.09,466.72a10.25,10.25,0,0,1,.87-1.24,6.57,6.57,0,0,1,1.72-1.42,5.53,5.53,0,0,1,1.45-.54,5.31,5.31,0,0,1,1.68-.1,5.45,5.45,0,0,1,.78.14c.23.07.5.15.7.23a6,6,0,0,1,1.08.58,7.47,7.47,0,0,1,2.2,2.4,11.42,11.42,0,0,1,1,2.21,14.4,14.4,0,0,1,.8,4.65,10.8,10.8,0,0,1-1.29,5.4l-5.72,10.17-6.45,11.55c-4.5,8.16-9.45,17.15-14.73,26.7l-8.07,14.74-4.2,7.66a51.47,51.47,0,0,1-5.14,7.78,23.1,23.1,0,0,1-7.78,6.3,23.39,23.39,0,0,1-9.87,2.18c-6.7,0-12.93-2.1-18.69-4.68a134.9,134.9,0,0,1-31.32-20.06A163.82,163.82,0,0,1,126,528.88c-4-4.34-7.81-8.79-11.31-13.26s-6.68-9-9.68-13.42-5.7-8.83-8.21-13.08c-5-8.51-9.21-16.49-12.7-23.5-5.88-11.71-10.59-22.24-14.65-31.51S62,416.8,59.17,409.9c-2.39-5.83-.8-2,3.61,8.36,2.22,5.18,5.11,12,8.65,20.06s7.73,17.32,12.69,27.3c4.47,8.9,9.63,18.49,15.89,28.57a226.69,226.69,0,0,0,22.92,31.07C111.59,512.09,102.5,497.7,95,484.1s-13.38-26.54-18.12-37.38c-3.65-7.88-7.19-15.87-10.69-23.93s-7-16.2-10.4-24.46C48.37,380.19,41.74,361.8,38,342.83a166.91,166.91,0,0,1-3.29-28.66c0-4.8,0-9.61.41-14.38.13-2.4.5-4.77.75-7.15l.56-3.54.28-1.77.37-1.76.72-3.51.89-3.47c.27-1.17.61-2.31,1-3.45s.68-2.28,1.06-3.41c.84-2.24,1.57-4.51,2.56-6.69.48-1.09.91-2.2,1.42-3.28l1.58-3.21a102.2,102.2,0,0,1,7.38-12.24,139,139,0,0,1,8.88-11.26c12.69-14.4,27.91-26.4,42.76-38.92l20.18-16.92L137.61,169c4.2-3.5,8.41-7.17,12.8-10.48a56,56,0,0,1,13.94-8,49.4,49.4,0,0,1,14.83-3.23c9.77-.58,18.56,1,25.15,2.41a106.88,106.88,0,0,0-20.84-2.39,53.72,53.72,0,0,0-20.15,3.84c-6.33,2.63-12,6.85-17.43,11.32l-16.36,13.77-32.74,27.6C85.93,213,75.06,222.23,65.5,232.66a132.5,132.5,0,0,0-13.06,16.59,95.94,95.94,0,0,0-9.62,18.68A118.34,118.34,0,0,0,35.4,309.3a167.87,167.87,0,0,0,5.24,42A308.73,308.73,0,0,0,54,391.72c-1.1-2.89-2.19-5.77-3.2-8.62a257.67,257.67,0,0,1-12.35-42.93,151.63,151.63,0,0,1-1.9-44.27A105.54,105.54,0,0,1,50,254.17a121.46,121.46,0,0,1,13-17.82,196.11,196.11,0,0,1,15.63-15.83c7.42-6.86,15.34-13.41,23.49-20.2-7.94,6.68-15.92,13.26-23.49,20.2-9.7,9-18.65,18.5-25.79,29.56a96.41,96.41,0,0,0-9,17.75,106.93,106.93,0,0,0-5.49,20,138.06,138.06,0,0,0-2,27.54l.12,3.55c.08,1.18.15,2.36.23,3.53.12,2.36.43,4.69.65,7,.58,4.63,1.26,9.16,2.18,13.51A286.06,286.06,0,0,0,50.83,383.1c3.11,8.37,6.5,16.65,10,24.89l3.35,7.57c0-.09-.09-.27-.12-.33-.92-2.63-3.14-8.17-6.17-16S51,381.39,47.3,369.6a215.85,215.85,0,0,1-8.88-40c-1.65-14.6-1.4-30.32,2-45.43l.31-1.42.37-1.4.74-2.81c.51-1.86,1.15-3.68,1.71-5.53s1.32-3.61,2-5.39L46.73,265c.37-.89.75-1.76,1.2-2.61A102.4,102.4,0,0,1,60,243.29c9.3-11.75,20.27-21.47,30.38-30.11l27-22.63c7.52-6.33,13.36-11.26,16.92-14.32l8.41-7.28c2.78-2.42,5.47-4.79,8.19-7,5.45-4.43,11-8.2,17.42-10.28a55.71,55.71,0,0,1,20.84-2.49,133.25,133.25,0,0,1,23.11,3.64c5.37,1.25,10.32,2.59,15,3.76,2.36.57,4.64,1.14,6.89,1.58l3.32.67,3.26.51c.87,0,5.17.58,9.49,1a239.56,239.56,0,0,0,33,2.11,166.3,166.3,0,0,0,29.08-2.7c3-.53,7.31-1.11,12.21-1.91a77.49,77.49,0,0,0,15.61-4,42.92,42.92,0,0,0,7.26-3.67,34.54,34.54,0,0,0,5.64-4.53,24,24,0,0,0,4.79-6.32c.87-2.56,1.17-4,1.54-5.18s.72-2.07,1.32-3.58a46.76,46.76,0,0,0,2.45-7.24,53.39,53.39,0,0,0,1.47-16.58,49.59,49.59,0,0,0-1.93-10,75.16,75.16,0,0,0-4.65-12,50.69,50.69,0,0,0-8.78-13.32A53.92,53.92,0,0,0,339.37,63a58,58,0,0,0-12.16-6.14,60.15,60.15,0,0,0-17.4-3.73c-10.47-.53-19,1.38-25.76,4.69A33.1,33.1,0,0,0,275.24,64,29,29,0,0,0,272,67.88a29.64,29.64,0,0,0-2.41,4.31c-2.65,6-3.32,12.07-3.5,18.55s0,13.54.4,22.36c.07,1.07.18,5.3.5,11.06s.86,13,1.65,20.13,1.88,14.05,2.82,19.2c.49,2.57.87,4.71,1.21,6.19s.51,2.32.51,2.32a176.43,176.43,0,0,0,18.68,51.86,166.39,166.39,0,0,0,13.05,20.06,151.89,151.89,0,0,0,16.26,18.28l2.9,2.34c1,.76,2,1.49,3.05,2.25,2,1.55,4.21,2.94,6.4,4.4a85,85,0,0,0,14.38,7.65,52.79,52.79,0,0,0,16.7,4,88.67,88.67,0,0,0,17.33-.86c22.59-3.25,45.39-6.84,65.51-11l48-10L516,256.59c7.12-1.64,14.77-3.29,23.52-5.43,9.94-2.61,17.37-4.68,23.18-6.13,2.93-.71,7.83-2.28,13.23-4s11.26-3.8,16.19-5.24l-2.27,1.31c3.31-1,9.88-2.88,13.15-3.94s2.52-.56,1.77-.11c-1.52.9-3,1.8,2.78.2l10.37-3.13c3.47-1.05,6.93-2.21,10.43-3.33l10.53-3.43c3.53-1.16,7-2.42,10.6-3.64l10.36-4c3.44-1.34,6.84-2.74,10.23-4.11l10.15-4.11c3.36-1.39,6.68-2.83,10-4.24a18.31,18.31,0,0,1,3.3-2.11c3.94-1.72,7.87-3.41,11.76-5.21,2.15-1.52,1.11-1.77,2.56-2.79-.64-1.51,15.3-9.85,10.75-9.58-.87.13-7,2.53-14.3,5.34l-5.59,2.15-5.63,2.06c-3.68,1.32-7.11,2.51-9.76,3.35-2.47.73,2.89-2,5-3.44-13.46,5.34-14.48,5-9.13,2.37-1.59.62-3.19,1.2-4.39,1.63l-2,.72,2.89-1.92c-34.41,12.48-73.44,24.42-107.47,35.09-3.66,1.12-8.51,2.68-13.46,4.29l-14.1,4.4c-2,.62-5.31,1.5-8.51,2.27l-8,1.87c-5.63,2-4.65,2.4-7,3.6-3.21.77-6.89,1.6-10.88,2.47l-12.67,2.84L467,258.36c-4.25.87-8.27,1.72-11.91,2.52L445.56,263c-5.38,1.23-8.5,2.17-8,2.59-10.44,2-16.7,3.26-23.05,4.65s-12.82,2.7-23.75,4.51c-7.26,1.19-14.92,2.61-22.68,2.65A45,45,0,0,1,356.5,276a56.77,56.77,0,0,1-11.44-4.41,86.93,86.93,0,0,1-11-6.7l-1.35-.93-1.31-1-2.62-2c-1.75-1.34-3.38-2.85-5.08-4.27a124.76,124.76,0,0,1-17.9-20,143.59,143.59,0,0,1-14.69-25.08,176.52,176.52,0,0,1-9.8-27c-1.91-6.92-3.37-13.75-4.52-20.31A318.64,318.64,0,0,1,272.47,112q0-6.42,0-12.75c.08-4.23.09-8.44.44-12.43a37.56,37.56,0,0,1,2.46-11.25A21,21,0,0,1,281.84,67a30.62,30.62,0,0,1,9.8-5.1,43.19,43.19,0,0,1,11.13-2,52.1,52.1,0,0,1,11.3.65,55.28,55.28,0,0,1,10.83,3.12c.86.38,1.75.69,2.58,1.12L330,66.05l2.42,1.4c.82.46,1.57,1,2.35,1.52a52,52,0,0,1,8.44,7.2,49.53,49.53,0,0,1,10.86,19.06,53.37,53.37,0,0,1,2.15,10.84,54.31,54.31,0,0,1-.18,11,46.74,46.74,0,0,1-2.55,10.7,36.92,36.92,0,0,1-4.92,9.63,26,26,0,0,1-3.46,3.92,30.36,30.36,0,0,1-4.21,3.21,44.49,44.49,0,0,1-10,4.53,94.52,94.52,0,0,1-11.26,2.8c-3.88.76-7.79,1.45-11.74,2a212.74,212.74,0,0,1-48.62,1.24,216.64,216.64,0,0,1-24.94-3.7c-8.36-1.75-16.84-4-25.68-5.83-2.21-.49-4.47-.87-6.71-1.28s-4.53-.73-6.83-1-4.61-.42-6.93-.59-4.66-.13-7,0a55,55,0,0,0-13.94,2.32c-.57.17-1.15.31-1.71.5l-1.66.64c-1.1.46-2.24.82-3.31,1.35a55.72,55.72,0,0,0-6.22,3.4,103.14,103.14,0,0,0-11.15,8.31l-10.36,8.86-20.68,17.7L91.42,203.54c-6.89,5.9-13.74,11.85-20.25,18.2-3.25,3.18-6.43,6.43-9.45,9.84-1.53,1.67-3,3.44-4.43,5.17s-2.85,3.55-4.16,5.41A105.41,105.41,0,0,0,39.9,265.92,117.83,117.83,0,0,0,33.22,292a144.31,144.31,0,0,0-1,26.57c.91,17.62,4.82,34.7,10,50.88S53.9,401.09,60.3,416.05,73,445.63,79.83,459.63a375.2,375.2,0,0,0,22,39.75A209.34,209.34,0,0,0,128.23,533a147.08,147.08,0,0,0,31.25,24.4l4.15,2.27c1.38.75,2.8,1.4,4.18,2.09a65.24,65.24,0,0,0,8.66,3.6,42.71,42.71,0,0,0,9.24,2.07,28.24,28.24,0,0,0,9.71-.58,22.77,22.77,0,0,0,8.77-4.44,31.27,31.27,0,0,0,6-6.74c1.59-2.34,2.88-4.67,4.1-6.87s2.37-4.33,3.52-6.43l12.7-23.13c7.67-14,13.75-25.15,18-32.91l3.37-6.87a11.37,11.37,0,0,0,1.17-5.16,14.88,14.88,0,0,0-.78-4.66,14,14,0,0,0-1-2.25,9.6,9.6,0,0,0-1.9-2.46,6.68,6.68,0,0,0-2.13-1.31,5.64,5.64,0,0,0-3.68,0,5.88,5.88,0,0,0-2.45,1.66,8.91,8.91,0,0,0-.61.8C240.37,466.23,240.23,466.47,240.09,466.72Z"/></g></g></svg>