<svg xmlns="http://www.w3.org/2000/svg" viewBox="0 0 294 233"><defs><style>.cls-1{fill:#ff7bac;}.cls-2{opacity:0.8;}.cls-3{fill:#b84675;}</style></defs><title>Tyggisklatt1</title><g id="Layer_2" data-name="Layer 2"><path class="cls-1" d="M197.52,125.5a9,9,0,0,1-5.81,8.87c-2.92,1.29-6.49,4-10.74,5-3.37.82-8.3-4.47-12.36-3.85-3.55.54-6.41,9-10.39,9.33-3.64.33-7.9-4.56-11.83-4.39-3.7.16-7.49,2.58-11.38,2.58s-7.57-5.11-11.27-5.27c-3.92-.17-7.64.19-11.28-.14-4-.37-7.67-.48-11.22-1-4.06-.62-8.54,2.39-11.91,1.57-4.25-1-5.72-8-8.64-9.25-5-2.21-6.68-.74-6.68-3.44s-1.57-8.58,3.45-10.8c2.92-1.28,8.16,1.36,12.41.33,3.37-.82,6.93-2.53,11-3.15,3.55-.54,7.56,1.08,11.53.71,3.64-.34,7.42.55,11.34.38,3.7-.16,7.39-.73,11.28-.73s7.84-5.51,11.54-5.35c3.93.18,7.47,5,11.11,5.33,4,.37,7.33,3.19,10.88,3.73,4.06.62,7.47,1.43,10.84,2.25,4.25,1,9.37-2.76,12.29-1.47C196.69,118.94,197.52,122.8,197.52,125.5Z"/><path class="cls-1" d="M97.94,124.88c7.53.67,15.17,1.79,22.74,1.74,7,0,13.78-2.46,20.82-2.33,1.93,0,1.93-3,0-3-7.05-.13-13.78,2.26-20.82,2.33-7.56.07-15.22-1.07-22.74-1.74-1.93-.18-1.92,2.82,0,3Z"/><path class="cls-1" d="M95.85,123.93a65.16,65.16,0,0,0,29.68-2.39c1.82-.61,1-3.51-.8-2.9A61.71,61.71,0,0,1,96.65,121c-1.89-.26-2.71,2.63-.8,2.89Z"/><g class="cls-2"><path class="cls-3" d="M153.43,132.06c-1.33-.29-3.38.34-5.52.85-1.06.29-2.17.49-3.16.72a19.51,19.51,0,0,1-2.6.28,11.71,11.71,0,0,1-2.47.05c-.52-.06.62-.09,2.47-.05.78-.12,1.73-.24,2.82-.49a24.22,24.22,0,0,1-4.05-1c-.65.11-1.32.21-2,.3a34.84,34.84,0,0,1-8.77.16,19.85,19.85,0,0,1-4.35-.7,49.46,49.46,0,0,0,12.69-.25l-.36-.07a46.53,46.53,0,0,1-6.68,0,5,5,0,0,1-1.14-.11c.38,0,.76.09,1.14.11a24.94,24.94,0,0,0,3-.44c.64,0,1.43.19,2.08.11a5.84,5.84,0,0,1,1.64.36c.33,0,.67,0,1-.09l.28-.14v0a5,5,0,0,0-2-.84c-.48-.12-1-.23-1.57-.34s-1.14-.25-1.72-.35c-1.16-.22-2.31-.45-3.25-.59a6.33,6.33,0,0,0-2-.15c-1,.15-2.05,1.43-3.28,1.47-.41,0-.72-.34-1-.07a1,1,0,0,1-.39.46c-.82,0-1.54-.8-2.23-.29-.49.18-1.24-3.11-1.4-2.54-.65,2-.18.58-1.14.21-.11-.07-.66.71-.89.58-.72-.67-1.1,0-2.09,0-1.57.37-1.55-1-3.13,0a20.07,20.07,0,0,1-2.38.42c-1.48-.63-2.77.09-3.49-1.72-1.79.79-3.1-1.32-4.59-1.65s-1.72-1.57-2.56-2.93c-.29-.28-.59-.3-.67-.65s-.9.17-1.18-.12l.33-.48-.37-.39c-.09-.09,0-.25.13-.42a1.38,1.38,0,0,0,.36-1,7.62,7.62,0,0,0-1.06-1.35A15.77,15.77,0,0,0,96,119a4.32,4.32,0,0,1-.47.6l-.59.17c-.35.47-.63,1-.87,1.35-.77,1.45-2.12,2.52-2.74,3.89-.14.42.65,1,.69,1.9,0,.27-.48.63-.84,1.09.53.27.27.85-.19,1.21l.21.21c-.13.16-.48.63-.48.63,1,1.33,2,3.35,3.64,3.29a4.77,4.77,0,0,0,1.43-.26c.22-.07.43.4.55.5a7.1,7.1,0,0,0,1-1.48c.75,1,2.57,2.76,3.25.79.77.4,1.27-.45,2.13-.23,1.16.24,2.6.61,4,1a15.09,15.09,0,0,1,2.27.58l.82.2c2.82.69,5.21,1.59,7.68,2.2a16.89,16.89,0,0,0,7.93.36,70.57,70.57,0,0,1,8.66-1.2l8.13-.71a54,54,0,0,0,10.85-2Z"/></g><g class="cls-2"><path class="cls-3" d="M141.39,119.31a19.11,19.11,0,0,0-3,.52,4.76,4.76,0,0,1-2.19,0,2,2,0,0,1-.88-.26c-.19-.12.18,0,.88.26a4.27,4.27,0,0,0,1,0,8.13,8.13,0,0,1-1.87-1.54,2.7,2.7,0,0,1-.57,0,5.33,5.33,0,0,1-2.4-.3c-.29-.15-.88-.15-1.14-.53a11.5,11.5,0,0,0,3.21,0,.53.53,0,0,1-.12-.1,10.09,10.09,0,0,1-1.76-.45.44.44,0,0,1-.29-.1l.29.1c.24,0,.42-.24.66-.32s.39.25.56.26.34.32.54.51l.27,0a.73.73,0,0,1,0-.09v0a9.74,9.74,0,0,0-1.73-2c-.61-.58-1.09-1-1.2-.85s-.3,1.47-.58,1.64c-.09.05-.16-.29-.23,0a2.18,2.18,0,0,1-.08.48c-.19.1-.34-.64-.5-.06-.15.24-.11-2.91-.16-2.34-.27,2.11-.08.58-.23.37,0,0-.2.8-.24.7-.06-.56-.22.16-.46.36-.43.59-.14-.72-.74.51a5.38,5.38,0,0,1-.4.47l-.36.35c-.24-.29-.93.56-.48-.89-.43.52-.56.36-.59.12s0-.61-.15-.6c-.38,0,.23-.91.8-1.66.07-.13,0-.09.18-.3s-.43.26-.35.13l.45-.35.12-.16L128,113l.81-.64a6.39,6.39,0,0,1,.58-.45,7.49,7.49,0,0,1-.77.45l-.58.35-.33.16-1.24.69c-.64.37-1.27.69-1.87,1l-.91.45c-.36.19-.72.38-1.06.58s-.55.6-1.22,1.16a12.48,12.48,0,0,1-1.22.65c0,.2-.48.56-1,.76l0,.15-.7.37a7.85,7.85,0,0,0-.58,1.67c-.08.54,0,1,.54,1.06a2.39,2.39,0,0,0,1-.09c.16,0,0,.34,0,.43a11.29,11.29,0,0,0,1.33-1.12c-.12.75.12,2.28,1.37.61.24.3.87-.44,1.2-.32l1.58.48a2.17,2.17,0,0,1,.83.24l.29.09a22.33,22.33,0,0,1,2.6,1.08,2.44,2.44,0,0,0,2.66-.45c1.77-1.65,3.32-1.56,5.23-1.39a14.05,14.05,0,0,0,2.9,0,5.21,5.21,0,0,0,1.32-.32,3,3,0,0,0,.91-.47C141.56,119.88,141.48,119.59,141.39,119.31Z"/></g><g class="cls-2"><path class="cls-3" d="M170.29,126.29c-.48-1.8-1.89-2.06-2.43-2.9a1.94,1.94,0,0,1-.49-.6c-.09-.18.13,0,.49.6a4.22,4.22,0,0,0,.61.44c-.27-.79-.5-1.59-.65-2.23a2.74,2.74,0,0,1-.42-.21,6,6,0,0,1-1.76-1.06c-.19-.24-.66-.36-.79-.79a26.48,26.48,0,0,0,2.58,1,1.16,1.16,0,0,1-.06-.15c-.44-.32-.87-.66-1.28-1a.32.32,0,0,1-.21-.18l.21.18c.2.06.42-.09.64-.1s.25.37.39.44a2.25,2.25,0,0,1,.25.67l.2.15s.05-.06.08-.07v0a7.13,7.13,0,0,0-.76-2.5c-.37-.76-.72-1.29-.87-1.17s-.67,1.35-.94,1.43c-.09,0-.08-.31-.21,0a2,2,0,0,1-.18.46c-.18.06-.17-.68-.43-.15-.16.21.44-2.88.28-2.33-.63,2-.18.56-.3.32,0,0-.33.76-.34.66,0-.56-.25.12-.51.3-.48.56-.08-.74-.77.45a10.37,10.37,0,0,1-.76.8c-.22-.3-.84.61-.46-.87-.8,1.07-.48-.49-.82-.4s0-.91.36-1.79c0-.15-.06-.09.07-.35s-.37.39-.34.23L161,115l.06-.19a3.91,3.91,0,0,1,.24-.37c.23-.31.45-.63.6-.88s.25-.51.33-.69c-.19.22-.41.46-.67.72l-.48.57-.32.31-1,1.21c-1,1.26-2.2,2.39-3.15,3.54-.27.34-.18.6-.57,1.28-.13.2-.51.57-.9,1,.13.11-.24.61-.64,1v.13l-.51.58c-.06.89-.37,2.36.46,2a2.79,2.79,0,0,0,.77-.49c.12-.09.05.26.06.33.34-.42.66-1,1-1.44,0,.66.11,1.88,1.06,0,.17.19.65-.64.9-.62a4.27,4.27,0,0,1,1.11.11.87.87,0,0,1,.58.13l.2,0a5.56,5.56,0,0,1,1.72,1,1.55,1.55,0,0,0,2-.11c1.64-1.27,2.82-.71,3.91.23s2,2.26,2.39,2.49Z"/></g><g class="cls-2"><path class="cls-3" d="M187.51,132.6c-1.44-1.65-5.49-1.48-7.29-2.23a6,6,0,0,1-1.59-.48c-.33-.17.42,0,1.59.48.52.1,1.14.21,1.86.31a31.92,31.92,0,0,1-2.45-2.06,12.53,12.53,0,0,1-1.35-.12,37.22,37.22,0,0,1-5.86-.81,13.39,13.39,0,0,1-2.91-.75q4.26.54,8.57.7l-.23-.13c-1.51-.23-3-.52-4.5-.81a2.67,2.67,0,0,1-.77-.17l.77.17a16.5,16.5,0,0,0,2-.19c.44,0,1,.35,1.41.38a3.44,3.44,0,0,1,1.06.62l.68.11a.5.5,0,0,1,.2-.08v0c-.31-.78-1.88-1.62-3.44-2.34s-3.15-1.23-3.61-1.09c-.73.17-1.45,1.38-2.29,1.49-.27,0-.48-.32-.71,0a1,1,0,0,1-.27.46c-.55,0-1-.71-1.51-.17-.32.23-.84-3-.95-2.41-.44,2.09-.12.57-.78.31-.08-.06-.44.78-.6.66-.5-.58-.74.12-1.42.27-1,.55-1.06-.81-2.11.4a16.08,16.08,0,0,1-1.6.77c-1-.34-1.86.56-2.39-1.06-1.2,1.12-2.13-.7-3.16-.67s-1.2-1.15-1.8-2.24c-.2-.21-.4-.16-.46-.48s-.62.37-.82.17L151,121l-.26-.28c-.06-.07,0-.25.08-.43a2,2,0,0,0,.24-1,4.88,4.88,0,0,0-.74-1,10.57,10.57,0,0,0-1.26.63,4.31,4.31,0,0,1-.32.68l-.42.32c-.24.53-.42,1.13-.59,1.49-.51,1.55-1.45,2.93-1.84,4.37-.09.43.47.76.51,1.59a5.91,5.91,0,0,1-.57,1.23c.37.12.2.73-.12,1.18l.15.15-.32.71c.73,1,1.45,2.67,2.62,2.25a3.65,3.65,0,0,0,1-.58c.15-.1.32.29.4.36a10.62,10.62,0,0,0,.64-1.63c.54.73,1.84,2.1,2.26.06.54.21.87-.7,1.46-.67.8,0,1.79.09,2.76.19a7.15,7.15,0,0,1,1.55.17l.55.07c3.79.4,6.5,2.32,10.35,1a19.9,19.9,0,0,1,11-.27c3.27.72,6,1.72,6.95,1.85Z"/></g><g class="cls-2"><path class="cls-3" d="M114,115.27c-.59,1.77.61,2.75.82,3.75a2.31,2.31,0,0,1,.26.78c0,.21-.13-.12-.26-.78-.11-.21-.25-.44-.41-.69-.1.84-.18,1.67-.28,2.34a3.78,3.78,0,0,1,.39.41,13.82,13.82,0,0,1,1.74,1.83c.18.3.73.62.82,1.09-1-.68-2-1.39-2.91-2.12a.78.78,0,0,1,0,.16c.42.54.84,1.08,1.28,1.61a.62.62,0,0,1,.23.27l-.23-.27c-.23-.15-.56-.11-.85-.22s-.2-.49-.35-.61-.06-.5-.08-.78l-.18-.24s-.08,0-.11,0v0c-.57,1.47.61,4.52,1.12,4.43s1.19-1,1.57-1c.13,0,.07.36.28.13a1.8,1.8,0,0,1,.29-.39c.26,0,.16.77.57.31.21-.17-.76,2.84-.49,2.32,1-1.89.26-.52.46-.21,0,.06.47-.69.5-.57,0,.58.37,0,.73-.16.64-.45.2.82,1.07-.28.1-.12,1-.7,1-.7.34.35,1-.53.75,1,.86-1.06.78.57,1.28.5s.27,1,.31,2c.06.17.17.11.13.4s.39-.42.44-.25l-.22.54a2,2,0,0,0,.07.23,1.12,1.12,0,0,1-.13.41,4.61,4.61,0,0,0-.34,1,2.94,2.94,0,0,0,.2.88,9.32,9.32,0,0,0,.78-.77c.09-.25.19-.49.28-.69l.27-.37c.2-.54.42-1.13.56-1.49.54-1.55,1.23-3,1.67-4.43.13-.41-.06-.63.1-1.4,0-.23.28-.71.5-1.25-.14,0,.06-.64.29-1.13l0-.11.29-.72c-.09-.79,0-2.24-.54-1.67a3.92,3.92,0,0,0-.53.68c-.09.12-.06-.23-.07-.28-.24.47-.45,1.07-.67,1.6,0-.63-.18-1.77-.91.18-.16-.16-.54.72-.78.73a3.53,3.53,0,0,1-1.07,0,.89.89,0,0,1-.57-.12l-.2-.06c-1.41-.38-1.68-2.27-3.59-1.43s-3.15-.24-3.78-1.57a16.92,16.92,0,0,1-.89-3.3Z"/></g></g></svg>