<svg xmlns="http://www.w3.org/2000/svg" viewBox="0 0 294 221"><defs><style>.cls-1{fill:#ff7bac;}.cls-2{opacity:0.8;}.cls-3{fill:#b84675;}</style></defs><title>tyggisklatt2</title><g id="Layer_3" data-name="Layer 3"><path class="cls-1" d="M190.9,114.5c0,4-.84,8.58-5.15,11.73-3.11,2.27-7.14,5.37-11.88,6.93-3.9,1.28-9.23-1.9-13.92-1.24-4.19.59-8.33,6.51-12.95,6.51s-9-4-13.23-4.54c-4.69-.66-9.53-.1-13.42-1.38-4.75-1.56-7.12-6.58-10.22-8.85-4.31-3.15-6.38-5.18-6.38-9.16s1.67-6.56,6-9.7c3.11-2.27,5.93-6.58,10.67-8.14,3.9-1.28,9.08,2,13.77,1.3,4.19-.59,8.21-1.88,12.83-1.88s9.42-4.3,13.61-3.71c4.69.66,8.59,4.53,12.48,5.81,4.75,1.56,9.12,2.91,12.23,5.18A13,13,0,0,1,190.9,114.5Z"/><path class="cls-1" d="M120.57,113.14c5.29.89,10.85,2.4,16.24,2.34,5.15-.06,9.62-3.16,14.75-3.07,1.93,0,1.93-3,0-3-4.42-.08-8.07,2.13-12.34,2.82-5.75.92-12.15-1-17.85-2-1.89-.32-2.7,2.57-.8,2.89Z"/><path class="cls-1" d="M119.39,112a27,27,0,0,0,21.43-3.32c1.63-1,.13-3.62-1.51-2.59a23.94,23.94,0,0,1-19.13,3c-1.87-.48-2.67,2.42-.79,2.9Z"/><g class="cls-2"><path class="cls-3" d="M161.58,121.18c-1.25,0-2.66.88-4.26,1.7a21.15,21.15,0,0,1-2.32,1.18,7.86,7.86,0,0,1-2,.68,5.65,5.65,0,0,1-1.95.38c-.21,0-.09,0,.26-.1l.72-.1,1-.18a12.94,12.94,0,0,0,2.12-.9,13.67,13.67,0,0,1-3.51-.35,11.43,11.43,0,0,1-1.46.51,14.29,14.29,0,0,1-6.52.67c-.39-.08-1-.1-1.62-.24a7.41,7.41,0,0,1-.87-.19,2.7,2.7,0,0,1-.68-.32,22.28,22.28,0,0,0,2.3.31,20,20,0,0,0,2.32,0,16,16,0,0,0,4.56-.93,1.32,1.32,0,0,1-.28,0,17.24,17.24,0,0,1-4.83.34,2,2,0,0,1-.82-.09,7.61,7.61,0,0,0,.82.09,9.78,9.78,0,0,0,2-.54,3.94,3.94,0,0,1,.76,0,2.63,2.63,0,0,0,.75,0,4.82,4.82,0,0,1,1.28.23l.72-.19a.85.85,0,0,1,.17-.16l0,0c-.61-.55-2.45-.72-4.05-1.12-.8-.13-1.58-.39-2.19-.49a2.83,2.83,0,0,0-1.3-.15c-.66.15-1.4,1.42-2.28,1.42-.29,0-.47-.34-.73-.1a.94.94,0,0,1-.33.43c-.6,0-1-.82-1.57-.39-.41.13-.34-3.09-.54-2.56-.86,2-.24.53-.84.13-.07-.07-.62.65-.76.51-.37-.72-.79-.11-1.54-.14-1.24.17-.87-1.11-2.31-.34a6.59,6.59,0,0,1-1,.11c-.46,0-.9,0-.9,0-1-.74-2.17-.25-2.16-2-1.64.5-2-1.62-3-2.12s-.8-1.66-1-3c-.13-.29-.35-.35-.29-.68s-.77,0-.89-.26l.44-.39c0-.09-.11-.29-.15-.39s.11-.22.25-.35a1.78,1.78,0,0,0,.66-.84,5.19,5.19,0,0,0-.32-1.33,11.89,11.89,0,0,0-1.48-.06,6.92,6.92,0,0,1-.6.46l-.54.07c-.46.36-.89.82-1.2,1.06-1.17,1.15-2.67,1.88-3.69,3-.27.35.16,1-.13,1.8-.11.22-.62.47-1.09.82.34.33-.08.8-.59,1l.09.23-.62.47c.36,1.37.46,3.35,1.85,3.59a4.06,4.06,0,0,0,1.26,0c.2,0,.23.43.28.54a8.46,8.46,0,0,0,1.3-1.18c.28,1,1.17,2.94,2.38,1.24.49.48,1.16-.2,1.8.12.85.4,1.89,1,2.93,1.51a10.35,10.35,0,0,1,1.65.87l.6.31c2.08,1,3.79,2.19,5.68,3.07a10.3,10.3,0,0,0,6.48,1c2.48-.49,4.83-.84,7.11-1.27a54.15,54.15,0,0,0,6.5-1.62,36,36,0,0,0,8.28-3.67Z"/></g><g class="cls-2"><path class="cls-3" d="M153,104.59a3.91,3.91,0,0,0-1.35.38,8.36,8.36,0,0,0-1.09.49,4.54,4.54,0,0,1-1.92.66,2,2,0,0,1-.91,0c-.23-.07.17,0,.91,0a4.55,4.55,0,0,0,.88-.32,9.61,9.61,0,0,1-2.34-.75,2.34,2.34,0,0,1-.49.15,3.61,3.61,0,0,1-2.16.1c-.28-.11-.76-.11-1-.44a4.64,4.64,0,0,0,2.59-.24l-.14-.06a4.8,4.8,0,0,1-1.58-.15.33.33,0,0,1-.25-.07l.25.07c.18,0,.24-.23.39-.32s.4.16.54.14a3.28,3.28,0,0,1,.65.33l.25,0a.11.11,0,0,1,0-.08l0,0c-.6-.47-1.53-.92-2.15-1.37s-1-.81-1-.68.24,1.23.08,1.35-.16-.25-.15,0a1.47,1.47,0,0,1,0,.39c-.12.08-.32-.55-.35-.09a4,4,0,0,1-.24-1.08,6.31,6.31,0,0,0-.13-.86c.07,1.7,0,.46-.07.28s-.05.62-.08.54c-.07-.45-.1.09-.24.21-.24.38-.09-.59-.43.23a1.56,1.56,0,0,1-.46.42c-.14-.3-.57.12-.26-.87-.27.25-.33.07-.34-.15s.05-.48,0-.54.2-.64.55-1c.05-.07,0-.08.12-.17s-.24,0-.18,0l.25-.12.08-.08.18-.09c.17-.06.33-.14.46-.2a1.7,1.7,0,0,1,.32-.15,1.67,1.67,0,0,1-.42.07l-.32,0h-.18l-.68.07a9,9,0,0,1-1,.06H139l-1.15.09c-.44.06-.59.4-1.36.73a7.67,7.67,0,0,1-1.34.14c0,.29-.61.45-1.15.42l-.09.18-.76.08a11.84,11.84,0,0,0-1,1.88c-.17.63-.17,1.29.33,1.57a2.53,2.53,0,0,0,1,.26c.16,0,0,.44,0,.54a10.53,10.53,0,0,0,1.54-.89,2.62,2.62,0,0,0-.07,1.46c.17.37.53.43,1.25-.38.16.42.88-.29,1.14-.08s.86.58,1.3.88a2,2,0,0,1,.7.46l.26.15c.88.49,1.62,1.22,2.5,1.63a2.05,2.05,0,0,0,2.61-.36,5.4,5.4,0,0,1,2.17-1.64,18.83,18.83,0,0,1,2.53-.76,19,19,0,0,0,2.54-.81,10.07,10.07,0,0,0,1-.44,2.58,2.58,0,0,0,.61-.48C153.36,105,153.19,104.79,153,104.59Z"/></g><g class="cls-2"><path class="cls-3" d="M171.83,114.18c-.49-1.79-1.72-2.08-2.1-3a1.48,1.48,0,0,1-.35-.62c0-.2.1.07.35.62a3.61,3.61,0,0,0,.48.48,15.1,15.1,0,0,1-.33-2.25,1.61,1.61,0,0,1-.29-.24c-.42-.38-.87-.56-1.13-1.17-.09-.23-.39-.42-.37-.83a8.15,8.15,0,0,0,1.64,1.15l0-.15a7.26,7.26,0,0,1-.71-1.06c-.05,0-.08-.08-.1-.19l.1.19c.12.08.31-.07.46-.06s.09.38.18.45a3.17,3.17,0,0,1,.07.67l.13.16s0-.06.06-.06v0a15.82,15.82,0,0,0-.09-2.49c-.07-.74-.1-1.27-.22-1.15s-.76,1.25-1,1.32,0-.31-.12-.06a2.94,2.94,0,0,1-.25.41c-.14,0,.1-.65-.25-.17-.18.17,1.24-2.63,1-2.13-1.09,1.83-.3.5-.29.28,0,0-.48.68-.45.58.2-.5-.2.1-.44.23-.53.46.22-.65-.7.34-.1.11-.86.62-.86.62-.05-.29-.87.4,0-.82-1,.81-.17-.5-.47-.46s.42-.77,1-1.45c.09-.12,0-.08.21-.28s-.47.27-.38.15l.47-.34.13-.15s.19-.15.34-.27c.32-.22.63-.45.86-.63s.42-.39.57-.51l-.87.47-.63.4-.39.2-1.36.84c-1.38.88-2.8,1.63-4.06,2.43-.36.24-.38.47-1,1-.18.15-.66.4-1.16.69.07.11-.44.47-.92.71l0,.11-.67.4c-.4.71-1.24,2-.4,1.84a3.53,3.53,0,0,0,.85-.25c.14-.06-.06.24-.07.3.45-.29.93-.7,1.39-1-.28.56-.61,1.71.9.28.07.22.8-.42,1-.35a4.65,4.65,0,0,1,.91.36.66.66,0,0,1,.45.26l.16.09c.55.31.79.9,1.17,1.36a1.27,1.27,0,0,0,1.77.27c1.74-1,2.53-.32,3.44.71a25.87,25.87,0,0,0,2.15,2.57Z"/></g><g class="cls-2"><path class="cls-3" d="M184.45,122.46c-1.33-1.55-4.35-1.23-5.72-2a3.66,3.66,0,0,1-1.2-.47c-.24-.17.31,0,1.2.47.39.09.85.18,1.4.26a19.18,19.18,0,0,1-1.92-2,6.4,6.4,0,0,1-1-.11c-.72-.1-1.42-.17-2.12-.29a8.51,8.51,0,0,1-2.05-.54,6.87,6.87,0,0,1-2-.8,35.3,35.3,0,0,0,6,.77,1,1,0,0,1-.17-.13c-.54-.1-1.06-.23-1.59-.38s-1-.27-1.55-.44a1.37,1.37,0,0,1-.53-.17l.53.17a7.13,7.13,0,0,0,1.41-.17c.3,0,.66.35,1,.39s.5.38.76.6l.48.11a.34.34,0,0,1,.14-.08v0c-.25-.78-1.37-1.61-2.42-2.34s-2.06-1.25-2.37-1.11c-.49.15-1.06,1.35-1.64,1.44-.19,0-.3-.33-.49-.06a1.12,1.12,0,0,1-.22.45c-.39,0-.65-.73-1-.2-.26.21-.22-3-.36-2.43-.55,2.06-.15.56-.55.29-.05-.06-.41.75-.5.64-.25-.6-.51.07-1,.2-.81.49-.6-.83-1.53.3a11.45,11.45,0,0,1-1.26.67c-.64-.41-1.45.42-1.47-1.17-1.1,1-1.35-.8-2.07-.86s-.56-1.16-.66-2.25c-.08-.2-.23-.17-.18-.48s-.54.32-.62.11l.31-.49-.1-.27c0-.07.09-.23.19-.39a3.26,3.26,0,0,0,.48-1,4.18,4.18,0,0,0-.18-1c-.33.14-.69.31-1.07.51-.15.22-.3.43-.44.6l-.4.27c-.35.46-.67,1-.9,1.32-.87,1.39-2,2.56-2.75,3.86-.21.38.12.75-.1,1.52a8.05,8.05,0,0,1-.81,1.09c.25.15-.06.7-.45,1.08l.08.16-.47.62c.28,1,.4,2.71,1.46,2.44a3.17,3.17,0,0,0,.94-.42c.15-.09.17.31.22.39a13.49,13.49,0,0,0,.93-1.49c.23.75.93,2.21,1.74.29.37.28.84-.58,1.29-.5.61.08,1.34.26,2.06.42a3.25,3.25,0,0,1,1.14.3l.41.1a30.06,30.06,0,0,1,3.74,1.45,5.17,5.17,0,0,0,4,.07,12.41,12.41,0,0,1,8.25-.2c2.49.67,4.71,1.52,5.5,1.59Z"/></g><g class="cls-2"><path class="cls-3" d="M133.92,103c-1.14,1.45-.46,2.57-.63,3.51a2.32,2.32,0,0,1,0,.75c-.05.2-.07-.13,0-.75,0-.21-.06-.44-.11-.71l-1.07,2.06a4.68,4.68,0,0,1,.2.45,10.5,10.5,0,0,1,.87,2c0,.31.42.71.34,1.16-.63-.83-1.22-1.67-1.79-2.53a.83.83,0,0,1,0,.15c.17.58.36,1.15.56,1.73a.42.42,0,0,1,.1.29l-.1-.29c-.16-.19-.45-.22-.67-.38s0-.48-.09-.63.12-.46.2-.72l-.08-.25s-.07,0-.1,0v0c-1,1.2-1,4.24-.54,4.27s1.39-.69,1.71-.6c.1,0-.06.34.2.18a1.91,1.91,0,0,1,.38-.3c.22.06-.11.74.39.4.23-.11-1.58,2.46-1.18,2,1.45-1.55.39-.42.47-.1,0,.06.64-.54.62-.42-.18.54.34,0,.68,0,.71-.3-.08.8,1,0,.12-.08,1.05-.46,1.05-.46.18.39,1-.31.35,1.06,1.06-.84.5.67.95.7s0,1-.3,1.91c0,.18.11.14,0,.41s.46-.33.46-.16l-.35.47v.23a1.47,1.47,0,0,1-.23.37,5.34,5.34,0,0,0-.58.89,3.15,3.15,0,0,0-.07.87,10.26,10.26,0,0,0,.9-.58c.15-.22.31-.43.44-.6l.34-.3.9-1.32c.9-1.37,1.9-2.62,2.68-3.9.23-.37.13-.6.48-1.3.12-.21.45-.63.78-1.1-.09-.07.25-.59.58-1v-.11l.45-.63c.16-.76.7-2.08.08-1.63a6.36,6.36,0,0,0-.65.55c-.11.1,0-.21,0-.27-.34.41-.7.93-1.05,1.39.17-.59.41-1.66-.8,0-.08-.18-.67.58-.87.56a2.52,2.52,0,0,1-.88-.21.64.64,0,0,1-.44-.21l-.15-.09c-1.06-.59-.64-2.36-2.54-2s-2.59-.82-2.65-2.13a15.38,15.38,0,0,1,.41-3.12Z"/></g></g></svg>