<svg xmlns="http://www.w3.org/2000/svg" xmlns:xlink="http://www.w3.org/1999/xlink" viewBox="0 0 969.1 566.55"><defs><style>.cls-1{font-size:130px;fill:none;}.cls-1,.cls-3{font-family:Back-to-the-future-2002-Regular, Back to the future 2002;}.cls-2{clip-path:url(#clip-path);}.cls-3{font-size:40px;}.cls-4{fill:#55b3f6;}.cls-5{opacity:0.4;fill:url(#radial-gradient);}.cls-6{fill:#52a6dc;}.cls-7{fill:#ececec;}.cls-8{fill:#8ccff9;}.cls-10,.cls-9{opacity:0.21;}.cls-9{fill:url(#Orchid);}.cls-10{fill:url(#Orchid-2);}</style><clipPath id="clip-path"><text class="cls-1" transform="translate(187.88 245.01)">Hurra!</text></clipPath><radialGradient id="radial-gradient" cx="713.34" cy="2336.41" r="97.67" gradientTransform="matrix(0.73, 0.24, -0.22, 0.79, 799.74, -1625.67)" gradientUnits="userSpaceOnUse"><stop offset="0" stop-color="#fff"/><stop offset="0.06" stop-color="#d5e6f4"/><stop offset="0.13" stop-color="#b3d2eb"/><stop offset="0.19" stop-color="#9ac4e4"/><stop offset="0.25" stop-color="#8bbbe0"/><stop offset="0.29" stop-color="#86b8df"/><stop offset="0.65" stop-color="#556cac"/><stop offset="0.77" stop-color="#8666a5"/><stop offset="0.99" stop-color="#e65a96"/></radialGradient><linearGradient id="Orchid" x1="-0.69" y1="286.85" x2="973.31" y2="286.85" gradientUnits="userSpaceOnUse"><stop offset="0" stop-color="#ff7bac"/><stop offset="0.22" stop-color="#ff7bac" stop-opacity="0.76"/><stop offset="0.6" stop-color="#ff7bac" stop-opacity="0.36"/><stop offset="0.87" stop-color="#ff7bac" stop-opacity="0.1"/><stop offset="1" stop-color="#ff7bac" stop-opacity="0"/></linearGradient><linearGradient id="Orchid-2" x1="0.31" y1="283.85" x2="974.31" y2="283.85" xlink:href="#Orchid"/><image id="image" width="457" height="416" xlink:href="../../dokumentasjon/skjermdump/Untitled-7.png"/></defs><title>Vinnerscreen</title><g id="Layer_9" data-name="Layer 9"><g class="cls-2"><use transform="translate(174.31 119.12) scale(0.62)" xlink:href="#image"/><use transform="translate(405.31 119.12) scale(0.62)" xlink:href="#image"/><use transform="translate(547.31 119.12) scale(0.62)" xlink:href="#image"/></g><text class="cls-3" transform="translate(299.07 414.47)">Du har reddet <tspan x="85.22" y="48">verden !</tspan></text><path class="cls-4" d="M201.22,312.24l-3.67.94c0,.06.08.11.11.17Z"/><path class="cls-4" d="M204.24,309.07l-1.16.29a.76.76,0,0,1,.26.09Z"/><path class="cls-4" d="M197.66,313.36c.46.62,2.16.92.47,2.09L190,317.53c-1.93.89.19.75.29,1.13-2,.52-4,1-4,1.23-1.19.84,1.08.6,5-.28C199.5,315.21,221.58,309,197.66,313.36Z"/><path class="cls-4" d="M213.48,307.81l-10.7,2.63c-1,.7-2.39,1.53-1.2,1.69A96.16,96.16,0,0,0,213.48,307.81Z"/><path class="cls-4" d="M520.22,331.93c0-.12.2-.19,2.11,0h-2.11c0,.11.1.27-.86.34,7.39-.17,16-.63,24.36-1.29,1.07-.27,2.1-.56,3-.86-20.62,1.82-41.34,1.27-58.32.49,6,.63,11,.91,16.05,1.08S514.45,331.92,520.22,331.93Z"/><path class="cls-4" d="M548.26,328.81l2.09-.18C548.45,328.61,548.26,328.69,548.26,328.81Z"/><path class="cls-4" d="M707.65,308.45a105.05,105.05,0,0,0-10.29-3c-1.59-.39-3.07-.77-4.48-1l-2-.38c-.17,0-1-.23-1.66-.39l-2-.5,2.59.74,1,.28.6.15,2.45.64,5.06,1.51c3.48,1,7,2.25,10.66,3.44l1.83.6c-.36.21-.84.42-1.25.64-.86.41-1.7.88-2.56,1.25-1.74.7-3.42,1.47-5.12,2,2.18-.5,4.27-1.29,6.4-2,1-.4,2.07-.84,3.1-1.26l.78-.32.39-.15.19-.08.05,0-.05,0-.1,0-1.61-.6Z"/><path class="cls-4" d="M633.11,291.89c7.5,1.86,14.41,3.23,20.87,4.76,3.23.72,6.38,1.39,9.47,2l9,2c-3-.78-6-1.6-9-2.34l-9-2.11L650,295.2c-1.49-.37-3-.7-4.49-1l-9-1.85Z"/><path class="cls-4" d="M650.12,294.44c3.44.86,6.75,1.64,10,2.37l4.76,1.06,4.62,1.11c6.08,1.45,11.94,2.64,17.69,4.14C674.33,299.46,661.59,296.58,650.12,294.44Z"/><path class="cls-4" d="M534.92,317.28c-2.25.18-4.29.22-6.1.44l-4.84.48-2,.18-1.72.24-2.72.33c-1.32.41-3.08.83-5.38,1.64l1.54-.22a180.61,180.61,0,0,1,27.87-2.05c2,0,3.87-.14,5.7-.17s3.57,0,5.15-.11c-2.92-.2-5.87-.48-8.78-.55S537.8,317.23,534.92,317.28Z"/><path class="cls-4" d="M517.54,319c5.65-1.69,2.69-1.36-.22-.77S511.62,319.61,517.54,319Z"/><path class="cls-4" d="M577.63,309.17l1.44.19c1.39.14,2.82.29,4.19.46C581.35,309.56,579.52,309.39,577.63,309.17Z"/><path class="cls-4" d="M694.73,325.16l-2,.29c-.67.07-1.33.14-2,.19l-3.3.28-3.16.28c-1.05.09-2.11.11-3.16.16l-6.3.28-6.26.06H675l6.41-.26c2.13-.05,4.25-.27,6.35-.46l3.34-.29c1.3-.1,2.62-.31,3.89-.52l7.54-1.18.92-.15.86-.21,1.71-.41,3.35-.82,3.26-.8c1.06-.28,2-.63,3-.94l5.6-1.84c-2.29.67-4.88,1.23-7.14,1.88-.5.19-1,.41-1.62.61l-2,.57L706,323.12l-2.52.66-2.82.48C698.73,324.57,696.74,324.88,694.73,325.16Z"/><path class="cls-4" d="M512.15,309A208.42,208.42,0,0,1,546,307.11c11.2.22,22.24,1.1,33.07,2.25,10.95,1.49,21.73,3.33,32.35,5s21.13,3.11,31.47,4.1a243.17,243.17,0,0,0,30.41,1.23l1.86,0,1.84-.11,3.67-.21c2.44-.1,4.84-.39,7.23-.65l1.74-.19,1.33-.16,2.53-.45c1.65-.32,3.25-.56,4.74-1a95,95,0,0,0,9.41-2.83l2.39-.93,1.19-.46,1.17-.55,2.35-1.1.59-.28s.13-.05.11-.07l-.19-.06-.38-.13-1.53-.52-7.28-2.48c-2.39-.82-4.78-1.5-7.09-2.22s-4.55-1.4-6.74-1.95l-1.8-.48-2.9-.82-5.74-1.61c-3.84-1-7.63-1.88-11.33-2.76L665,296.35l-5.37-1.08c-3.52-.69-6.92-1.33-10.17-1.9s-6.38-.94-9.3-1.31l5.09,1.21c1.67.38,3.3.76,4.89,1.17-2.38-.49-4.73-.81-7-1.16s-4.46-.65-6.58-.93l-5-1-5-.92-10-1.8c-3.35-.63-6.72-1.07-10.08-1.61s-6.71-1.07-10.07-1.52c-13.47-1.79-26.95-3.41-40.53-4.46-27.14-2.26-54.56-3.19-82.54-2.74-4.15.08-7.78.29-11.4.5s-7.25.56-11.39.71l-6.27.26-6.23.37-12.36.77c0,.05.08.08.31.11-17,1.28-33.91,3-50.9,5.15s-34.05,4.86-51.49,8c-16.37,2.91-32.79,5.65-49.09,8.95-6.12,1.21-6.27.49-10.39,1.14-16.5,2.43-28.88,4.46-47.22,8.44,0,0-.1-.38-.14-.57-2.78.75-5.3,1.36-7.37,1.8,8.18-4.33,30.34-10.29,6.36-6.18h0l3.56-1.07.4-.09,0,0a94.2,94.2,0,0,0,11.95-4.18l-10.72,2.51c.61-.42,1-.79.55-1l.91-.37,2.92-.69a5.3,5.3,0,0,0,1.06-.71c9.16-3.07,23.91-6.69,20.88-6.88-2.27.1-9.09,1.9-16.81,4-.49,0-1.05.1-1.61.18,10.18-2.58-.31-1.34,5.78-3,8.21-1.8,16.35-3.89,24.59-5.56,33.5-7,61.91-12.15,95.18-17.3,1.47-.24,2.92-.43,4.39-.63l12-1.64c4-.54,7.89-.94,11.81-1.39,7.84-.93,15.67-1.55,23.64-2.22l-3.13.67c6.4-.57,12.83-.91,19.24-1.42,3.21-.27,6.43-.45,9.64-.67l9.64-.7c15.76-1.07,31.55-2,47.63-2.15l6.05-.11,6.07,0,12.25.1c8.21.28,16.52.43,24.95,1,8.84.46,17.58,1.27,26.3,2,8.69.92,17.37,1.7,26,2.89,8.67,1,17.32,2.41,26,3.7,8.69,1.54,17.47,2.95,26.3,4.83-14.47-2.85-29-5-44-7.19l-10-1.41c-3.32-.46-6.61-.95-9.87-1.26,3.37.38,6.7.9,10,1.34l9.88,1.33c6.43,1.06,12.9,2.12,19.29,3.25l9.5,1.81c3.14.59,6.26,1.12,9.31,1.79l9,1.81,4.39.83L655,281q4.21.87,8.24,1.61c2.67.5,5.27.91,7.75,1.4a41.59,41.59,0,0,0,4,1.5c3.58,1,7.16,2,10.69,3L696.88,292c2.58.77,5.09,1.59,7.58,2.39l7.27,2.48c4.81,1.63,9.6,3.21,14.43,4.74.18,0,2.52.76,4.55,1.41s3.79,1.25,2.67.62l19.35,7.14-.76.8-.39.4-.2.2-.1.1,0,.05-.14,0-4.49,1.84-4.49,1.85-2.22.91-2.09.82-8.25,3.24-8.08,3-1.27.47-.64.24-.72.2-2.87.81-5.74,1.7-1.44.44a11.23,11.23,0,0,1-1.5.4l-3.24.64-6.6,1.34c-1.18.19-2.34.41-3.53.58s-2.42.27-3.47.37l-4.43.42c-.74.07-1.48.16-2.21.2l-2.21.12-4.42.22c-5.89.22-11.75.21-17.59,0-11.68-.4-23.26-1.51-34.78-2.92s-23.05-3.15-34.49-4.73-23-2.93-34.63-3.66c-2.9-.2-5.88-.32-8.93-.51s-6.13-.19-9.21-.24c-6.15,0-12.29.13-17.92.64a188.19,188.19,0,0,1,25.72-1.27c8.82.15,17.84.76,27,1.67,8.83,1.21,17.49,2.64,25.78,3.9s16.32,2.33,23.58,2.92l10.16.91c-10.25-1.15-20.34-2.58-30.29-4s-19.62-2.77-29.23-3.74a296.3,296.3,0,0,0-31.39-2.83l.63,0c8.11-.05,16.4.44,24.77,1.15,15.71,1.89,30.85,4.64,44.29,6.1,1.67.18,3.33.35,4.93.48,3.36.33,6.71.7,10.09,1-12.54-1.53-25-3.46-37-5.08-7.48-1-14.94-1.9-22.31-2.5-2.31-.31-4.62-.55-6.94-.78s-4.66-.5-7-.65l1.47-.05a57.56,57.56,0,0,0,8.64-.62c2.67-.41,4.09-.94,1.05-1.6-7.89-.78-16.58-1.36-25.13-1.45a198.26,198.26,0,0,0-24.23,1.4c-1.82.24-3.57.56-5.25.81s-3.29.5-4.77.87l-4.21.92-1.89.42-1.69.49-5.06,1.43c-1.19.3-1.79.59-1.81.55-1.11-.15,10.78-4.42,23.51-6.28,1.58-.26,3.19-.4,4.75-.61s3.11-.41,4.61-.52c3-.21,5.79-.45,8.15-.57,4.74-.15,7.74-.26,7.23-.31-3-.05-6.07-.19-9.08-.14,2.86-.28,5.68-.37,8.28-.59,3.08-.09,6.69.1,10,.18s6.45.34,8.54.3a197.7,197.7,0,0,1,23.08,1.68c8,1,16.29,2.22,24.64,3.22,10.47,1.13,23,2.41,35.65,3.14,0-.35,6.29.52,4.24-.1,5.89.64,12.25,1.2,17.79,1.33a60.61,60.61,0,0,0,12.74-.64l.86,0a32,32,0,0,0,3.26-.23l3.6-.08c1.18,0,2.34-.05,3.47-.16l3.35-.28,3.06-.28a94.73,94.73,0,0,0,10.37-1.88l2.33-.57,1.13-.29,1.1-.36,4.22-1.4c1.36-.5,2.65-1.11,4-1.64.64-.29,1.3-.53,1.93-.85l1.88-1,2.56-1.12.32-.14.16-.07-.18-.07-.75-.26-1.5-.54c-2.53-.92-5.08-1.86-7.62-2.82,2.1.8,4.64,1.87,7.16,2.81l1.48.53c.4.17,1.36.33.67.5l-2.3,1.18c-2.54,1.22-5.2,2-7.83,3-1.35.42-2.71.8-4.08,1.21l-2.08.6-2.12.48c-1.42.31-2.86.66-4.33,1l-4.49.73c-.77.12-1.53.27-2.3.36l-2.55.27c-1.87.18-3.73.42-5.59.55-1.22.15-3.19.39-5,.57-1.09,0-2.17.06-3.26,0-.26.08-.55.15-.86.22-14.41.57-30.76-.87-43.05-2.05-11.58-1.25-23.47-3.2-35.38-5.17s-23.93-3.8-35.74-4.94c11.79.76,23.39,2.07,34.76,3.53-14.21-2-27.68-3.49-40.78-4.06l-6-.4c-2.1-.11-4.2-.15-6.29-.23-1.05,0-2.1-.08-3.15-.09h-3.15c3.92,0,7.8.32,11.65.48-3.91,0-7.79-.12-11.64.08-1.93.08-3.85.1-5.76.23l-5.69.45a155.92,155.92,0,0,0-29.43,5,115.19,115.19,0,0,0-27.55,11.57l-.69-3.92a339.62,339.62,0,0,0,66.64,4.64c-.81.27-1.76.53-2.81.8-20.44.71-40.84-1-57.55-2.6,5.85.94,10.83,1.46,15.76,1.91s9.82.74,15.51,1.07c0,.11.09.28-.87.3,7.3.22,15.83.22,24.11,0-2.64.57-5.62,1.06-8.6,1.55-4.22.34-10.54.17-16.86,0a298.6,298.6,0,0,1-36-4.1l-4.23-.73,3.75-2,4.86-2.6,2.43-1.3c.82-.41,1.68-.75,2.51-1.13l5.05-2.22c1.7-.68,3.45-1.25,5.18-1.89,3.43-1.34,7-2.18,10.57-3.24,1.79-.49,3.61-.81,5.42-1.24s3.63-.84,5.48-1.1a191.54,191.54,0,0,1,36-1.91,353.7,353.7,0,0,1,35.44,3.19C554.46,306.57,532.76,305.79,512.15,309ZM259.3,298.62l6.38-1.62-1,.07A39.59,39.59,0,0,0,259.3,298.62Zm48.05-9.1c-14.19,2.18-32.69,6.06-50.48,10.23-.09.07-.14.14-.13.18C271.75,296.88,290.15,292.83,307.35,289.52ZM364.52,285l-.35,0a.41.41,0,0,1,.05.09Zm253-2.8c-16.61-2-37.27-5-58.08-6.56-6.23-.56-12.51-.4-20.83-.89-5.21-.25-9.38-.4-13.29-.39s-7.56,0-11.73-.12l6.24.66c-7.28-.48-13-.28-18.74-.21s-11.45.3-18.73.07c0,.2-2.07.58-4.16.58-5.19.2-10.39.24-15.34.31s-9.62.31-13.77.65c-5.2.25-10.39.64-15.31,1l-7.17.54c-2.3.23-4.5.46-6.57.72s-6.18,1-10.31,1.55l-15.15,1.56.63.1c4.12-.37,8.29-.77,12.45-1.29,6.21-.7,12.94-1.38,19.67-2s13.47-1.14,19.7-1.47c31.15-1.67,60.3-2.32,89.41-1.18,3.12.11,6.25.18,9.38.24s6.24.25,9.36.41c18.76.84,41.47,4,54,4.94C611.25,281.57,615.38,282.19,617.5,282.24Zm24.7-3.67c-22-4-46.38-7.57-67.25-10.1l-7.6-.81c-2.91-.33-6.16-.49-9.55-.74s-6.92-.47-10.44-.65-7-.23-10.31-.3c-6.58-.21-12.39,0-16,.24s-5.09.73-3,1.41a92.72,92.72,0,0,1,12-.71c5.2,0,11.48.24,18.38.58l10.73.8,5.62.45,5.7.61L582,270.62l11.45,1.56L599,273l5.43.86,10.25,1.64c6.51,1.1,12.27,2.19,16.92,2.9C640.86,280,645.54,280.48,642.2,278.57Zm11.55,52.2c9,.35,17.85.5,28.28.05A234,234,0,0,1,653.75,330.77Zm72-22.91,7.53,2.52,1.93.9.46.22.23.12c.08,0,0,0-.06.06l-.13.06-1.09.48-4.45,2c-.76.33-1.52.69-2.28,1l-2.31.85-4.7,1.74c-1.58.59-3.24,1-4.87,1.54s-3.27,1-5,1.48l-5.3,1.23-2.68.62c-.88.23-1.86.31-2.8.48l-5.7.88c-1,.15-1.91.32-2.88.41l-2.7.25-4.92.47-4.91.25c-1.64.06-3.27.2-4.9.21l-4.86.05c-3.24.09-6.44-.08-9.62-.12-21.31-.61-44.09-5.54-62.91-7.26l-.09.58,2.09.14c7.25,1.32,13.07,2.62,19.19,3.72l-1.08-.11,1.85.25c4.08.76,8.35,1.38,13.3,1.92l6.92.59A261.65,261.65,0,0,0,679.05,327l5-.26,4.92-.49,2.78-.27c1.06-.11,2.08-.28,3.1-.45l6-1c1-.18,2-.32,2.93-.51l2.72-.7,5.31-1.36,1.3-.33c.41-.12.8-.27,1.2-.4l2.35-.8,4.58-1.56c1.83-.65,3.58-1.39,5.29-2.05s3.36-1.27,5-2.08l4.78-2.22,1.16-.54.29-.14s.11,0,.13-.07l-.1-.06-.43-.24c-.56-.33-1.16-.66-1.77-1-8.68-2.82-16.7-5.56-24.73-7.94l7.29,2.61C720.74,306.1,723.34,307.08,725.7,307.86Z"/><path class="cls-4" d="M550.78,308.69a228.51,228.51,0,0,0-27.3.44c-1.76.1-3.51.34-5.26.57l-5.22.67-5.16,1-2.57.47c-.86.17-1.7.41-2.54.61a126.18,126.18,0,0,0-36,13.76l-.85-4.87a306.69,306.69,0,0,0,68.86,4.2c1-.62,1.12-1.22-.19-1.76a347.62,347.62,0,0,1-68.27-4.63l1.57,9,5.07-2.72c.85-.44,1.67-.95,2.55-1.32l2.64-1.16,2.64-1.16a25.86,25.86,0,0,1,2.68-1.08l5.46-1.91a28.55,28.55,0,0,1,2.77-.83l2.8-.77,2.79-.76c.94-.23,1.9-.4,2.85-.6,1.9-.37,3.8-.79,5.71-1.13l5.78-.79.88-.19c8-1.58,18.82-2.35,30.19-2.1s23.28,1.3,33.68,2.21,20.81,2.17,31.23,3.52,20.86,2.64,31.35,3.4C608.79,317.12,580.57,310.81,550.78,308.69Z"/><path class="cls-4" d="M672.49,300.7c3.91,1.06,7.86,2,11.75,3.21l5.8,1.7,2,.52,5.89,1.62c2.08.6,4.27,1.3,6.64,2l.93.29.47.14.12,0-.06,0-.14.08-1.13.63c-.39.21-.78.45-1.19.65l-1.28.58-1.35.6-1.45.51-1.53.53c-.52.16-1.07.3-1.63.45.6-.12,1.21-.23,1.8-.37l1.76-.46,1.76-.47,1.71-.57,1.71-.58c.57-.21,1.12-.45,1.68-.68l1.67-.69.2-.09s.1,0,.09,0l-.11,0-.44-.17-.88-.32-6.18-2.31c-1.8-.56-3.58-1.06-5.25-1.49s-3.22-.78-4.64-1l-.52-.09-.26-.05a2,2,0,0,1-.36-.07l-2.51-.63-5-1.23C679.24,302.12,675.87,301.47,672.49,300.7Z"/><path class="cls-4" d="M687.5,316l1.93-.22c.42,0,.78-.1,1.12-.16l2-.41c.66-.14,1.3-.25,1.92-.4l1.81-.49-1.94.39c-.65.11-1.31.19-2,.29l-2,.29-1.07.1-1.94.16-4.1.34-4.12.15-4.13.16h-4.14a305.29,305.29,0,0,1-33.26-2.13c-18.3-1.83-36.61-5-55.28-7.34s-37.58-3.73-56.54-2.36c-4.3.21-8.56.76-12.79,1.21a213.66,213.66,0,0,1,26.37-1c8.75.2,17.43.9,26,1.79s17.09,2.16,25.5,3.44l24.89,4c8.21,1.23,16.33,2.36,24.36,3.21,2,.23,4,.38,6,.57s4,.36,6,.47l5.93.36,5.87.17,2.92.07,2.9,0c1.93,0,3.85,0,5.76-.08,3.8-.24,7.59-.33,11.29-.8l2.71-.29c.65-.08,1.23-.13,1.82-.25l3.38-.62c1.09-.18,2.13-.49,3.14-.74s2-.49,2.88-.81l1.65-.57a85.82,85.82,0,0,1-11.67,2.16l-4.17.36c-1.69.13-3.36.3-5.06.33-3.38.12-6.75.3-10.15.23a321.4,321.4,0,0,1-40.75-3c9.56,1.11,19.11,2,28.62,2.34A198.44,198.44,0,0,0,687.5,316Z"/><path class="cls-4" d="M559.54,309.14c-2-.19-4-.41-6-.53l-6.95-.24c1.41.09,2.82.22,4.21.32l4.4.17Z"/><path class="cls-4" d="M618,322.72l.77.14c6.61.93,13.38,1.77,20.22,2.51,9.48.75,19.43,1.32,29.63,1.33C650.1,326.5,632.06,324.19,618,322.72Z"/><path class="cls-4" d="M676.81,332.59l4.41-.13c1.65,0,3.31-.09,4.42-.19l4-.66c-2.07.14-4.16.32-6.24.4Z"/><path class="cls-4" d="M670.94,284c5.4,1.41,10.78,2.72,16.06,4.18l7.91,2.28,6.1,1.81c2,.64,4,1.27,6,1.93l23.43,8.09,23.59,8.5-1.42,1.34c-.08.21-.87.48-1.45.74l-1.83.76L742,316.73l-6.78,2.74c-2.24.89-4.45,1.82-6.74,2.63l-6.8,2.51c-.58.2-1.08.44-1.74.61l-1.94.53-3.88,1.06-3.88,1.07-1.94.54c-.68.15-1.44.25-2.15.38l-8.72,1.46c-1.39.27-2.75.61-4.2.83-.73.14-1.39.2-2.09.3l-.52.06-.35.06-.66.1,2-.14c.84-.05,1.74-.15,2.64-.26l5.25-.8,5.24-.8,2.61-.41,1.31-.2,1.17-.31,9.32-2.46,2.31-.62,2-.73,4-1.46c5.39-1.89,10.49-4.05,15.57-6.06l8.12-3.39,2-.84,1-.41.48-.21.25-.18,1.94-1.44-16-5.7-7.79-2.72L725.49,300l-22.9-7.35c-1.87-.63-3.79-1.19-5.69-1.77l-4.35-1.3-7.12-2.08-14.19-3.62c-2.34-.62-4.7-1.13-7-1.64l-7-1.54c-2.34-.5-4.67-1.05-7-1.49l-7-1.33,6.72,1.35c2.25.43,4.47,1,6.73,1.49,4.49,1.06,9.05,2,13.62,3.16Z"/><g id="astronauthode"><ellipse class="cls-5" cx="810.27" cy="425.15" rx="38.57" ry="42.07"/><path class="cls-6" d="M823.31,364.23c-29.72-9.79-61.1,8.59-70.1,41.06S761,472,790.73,481.8,844,470.63,853,438.16,853,374,823.31,364.23ZM800.73,465c-18.19-6-28.16-28.11-22.27-49.39s25.43-33.66,43.62-27.67,28.16,28.11,22.27,49.39S818.92,471,800.73,465Z"/><path class="cls-7" d="M825,492.91c-1.2,4.09-16.91,9.7-37.41,2.6C767.1,488.69,751.27,472,752,468.87c.52-3.38,18.24,7.44,39.38,13.29C812.52,488.26,826.31,488.5,825,492.91Z"/><path d="M791.18,422.62c1.19-.59,3.07,7,11,13.33,11.63,9.27,24,6,24.44,9.33s-11.85,11.9-22,8C791.06,448.05,789.15,423.65,791.18,422.62Z"/><ellipse cx="805.24" cy="407.96" rx="4.89" ry="5.33"/><ellipse cx="831.5" cy="421.96" rx="4.89" ry="5.33"/><path class="cls-8" d="M799.09,404.49a20.4,20.4,0,0,1-1.39,6.79c-1.43,3.49-5.37,7.76-8.09,5.19s.43-5.13,2.7-8C794.42,405.85,799.09,404.49,799.09,404.49Z"/></g><path id="underlag_gradient" data-name="underlag gradient" class="cls-9" d="M973.31,571.12H-.69V3.12H342.16c11.69,0,23.5-1.2,35.4,0H973.31Z"/><path id="underlag_gradient-2" data-name="underlag gradient" class="cls-10" d="M974.31,568.12H.31V.12H343.16c11.69,0,23.5-1.2,35.4,0H974.31Z"/></g></svg>